<?xml version="1.0" encoding="UTF-8" standalone="no"?>
<svg
   xmlns:dc="http://purl.org/dc/elements/1.1/"
   xmlns:cc="http://creativecommons.org/ns#"
   xmlns:rdf="http://www.w3.org/1999/02/22-rdf-syntax-ns#"
   xmlns:svg="http://www.w3.org/2000/svg"
   xmlns="http://www.w3.org/2000/svg"
   xmlns:sodipodi="http://sodipodi.sourceforge.net/DTD/sodipodi-0.dtd"
   xmlns:inkscape="http://www.inkscape.org/namespaces/inkscape"
   width="500"
   height="500"
   viewBox="0 0 132.29166 132.29167"
   version="1.1"
   id="svg947"
   sodipodi:docname="whatsfix1.svg"
   inkscape:version="1.0 (4035a4fb49, 2020-05-01)">
  <defs
     id="defs941" />
  <sodipodi:namedview
     id="base"
     pagecolor="#ffffff"
     bordercolor="#666666"
     borderopacity="1.0"
     inkscape:pageopacity="0.0"
     inkscape:pageshadow="2"
     inkscape:zoom="0.70710678"
     inkscape:cx="408.40355"
     inkscape:cy="-254.07264"
     inkscape:document-units="px"
     inkscape:current-layer="layer1"
     inkscape:document-rotation="0"
     showgrid="false"
     units="px"
     inkscape:window-width="1600"
     inkscape:window-height="837"
     inkscape:window-x="-8"
     inkscape:window-y="-8"
     inkscape:window-maximized="1" />
  <metadata
     id="metadata944">
    <rdf:RDF>
      <cc:Work
         rdf:about="">
        <dc:format>image/svg+xml</dc:format>
        <dc:type
           rdf:resource="http://purl.org/dc/dcmitype/StillImage" />
        <dc:title></dc:title>
      </cc:Work>
    </rdf:RDF>
  </metadata>
  <g
     inkscape:label="Layer 1"
     inkscape:groupmode="layer"
     id="layer1">
    <circle
       r="45.530094"
       cy="71.207153"
       cx="63.716343"
       id="path10"
       style="fill:#ffffff;stroke:none;stroke-width:4.81958" />
    <path
       id="path8"
       style="fill:#25d366;fill-opacity:1;stroke-width:3.15812"
       d="M 66.031811,6.085416 A 60.060418,60.060418 0 0 0 6.085417,66.145831 60.060418,60.060418 0 0 0 66.145832,126.20624 60.060418,60.060418 0 0 0 126.20625,66.145831 60.060418,60.060418 0 0 0 66.145832,6.085416 a 60.060418,60.060418 0 0 0 -0.114021,0 z m 0.427462,21.680872 c 0.705855,3.04e-4 1.42207,0.06036 2.660489,0.180181 5.472931,0.529477 9.739919,1.704476 14.067274,3.874367 6.231227,3.124558 11.013367,7.341879 14.867769,13.11147 4.424155,6.622429 6.571745,14.203043 6.324175,22.323236 -0.30169,9.895563 -4.19302,18.96137 -11.11071,25.885099 -6.144653,6.150015 -13.261676,9.711179 -21.867619,10.942259 -2.661258,0.3807 -7.810524,0.37962 -10.519489,-0.002 -3.509279,-0.49514 -7.003842,-1.53311 -10.93475,-3.24749 -2.317002,-1.010513 -2.256504,-1.012752 -7.24338,0.28669 -1.98918,0.51833 -6.077497,1.58575 -9.085075,2.37239 -3.007581,0.78665 -5.568784,1.43019 -5.691664,1.43019 -0.192222,0 -0.192779,-0.10384 -0.0056,-0.74653 l -4.69e-4,-4.8e-4 c 0.119613,-0.4108 0.43923,-1.59591 0.709933,-2.63374 0.270703,-1.03783 0.805711,-3.019401 1.189008,-4.403174 0.383297,-1.383773 0.910397,-3.294174 1.171179,-4.245522 0.260781,-0.951345 0.726888,-2.649635 1.036043,-3.773951 0.309155,-1.124319 0.600527,-2.514311 0.647057,-3.088888 0.08237,-1.017149 0.06058,-1.095725 -0.820671,-2.987537 -1.741182,-3.737872 -2.743314,-6.895873 -3.410774,-10.748938 -0.4792,-2.766265 -0.52163,-9.25401 -0.07836,-11.951084 1.243514,-7.56624 4.64691,-14.698573 9.49236,-19.891728 3.501703,-3.752981 6.621505,-6.142096 10.822606,-8.288806 4.567941,-2.33416 9.217073,-3.625805 15.182615,-4.217837 1.196762,-0.118769 1.892227,-0.17814 2.598084,-0.177834 z m 0.109798,6.422242 c -0.460779,-0.0024 -0.920839,0.0057 -1.379514,0.02533 -11.397731,0.486079 -21.188879,6.443498 -26.796797,16.304527 -2.764357,4.86088 -4.099517,9.965959 -4.101471,15.682808 -0.0018,5.30251 0.987293,9.370923 3.482565,14.325348 1.940924,3.853745 2.024817,4.586967 0.926245,8.106277 -0.326386,1.045589 -0.821908,2.785785 -1.100795,3.86686 -0.278887,1.081074 -0.603347,2.317078 -0.721193,2.746356 -0.117848,0.429284 -0.189692,0.805058 -0.159535,0.835215 0.04876,0.04879 3.073659,-0.71587 9.485322,-2.397256 1.41197,-0.370273 2.249556,-0.514528 2.594329,-0.447169 0.280062,0.05473 1.358482,0.544068 2.396315,1.087658 3.555101,1.862084 7.561331,3.163526 10.84982,3.523858 0.778375,0.08526 1.662871,0.183873 1.965573,0.219595 0.855734,0.100962 4.805273,-0.03912 6.28992,-0.22335 4.511811,-0.5598 9.688827,-2.50539 13.622453,-5.119212 C 87.771123,90.167908 91.267917,86.48459 93.70324,82.4222 100.27125,71.466044 99.48189,57.310228 91.724062,46.920863 90.47462,45.247597 87.805638,42.521029 86.002839,41.076703 80.568188,36.722703 73.48074,34.225775 66.569071,34.188526 Z M 53.426632,48.495577 c 1.077404,0.0046 2.128043,0.23738 2.504238,0.665824 0.183379,0.20885 0.884844,1.677796 1.558755,3.264378 1.737535,4.090676 2.117598,5.114447 2.117598,5.701987 0,0.709621 -0.618228,1.810978 -1.903164,3.390129 -1.443909,1.774526 -1.443769,1.930909 0.0033,4.107568 2.733591,4.111842 5.90913,6.921934 10.31256,9.124962 2.074768,1.037998 2.999019,1.264407 3.586733,0.87932 0.203302,-0.133204 1.053748,-1.092518 1.890027,-2.131674 1.728303,-2.14758 2.163018,-2.541307 2.804069,-2.541307 0.251246,0 1.946429,0.711317 3.791783,1.591133 4.151849,1.97949 4.661197,2.255365 5.127189,2.77451 0.342757,0.381857 0.366021,0.509776 0.280127,1.524502 -0.179007,2.114698 -0.936297,3.727505 -2.410396,5.133289 -2.18364,2.082446 -5.38632,2.887471 -9.01563,2.265872 -5.594326,-0.958146 -11.464796,-4.087985 -16.510986,-8.802606 -4.859776,-4.540461 -9.41256,-11.091505 -10.38576,-14.943781 -0.437076,-1.730099 -0.430722,-4.139505 0.01502,-5.739524 0.657253,-2.359281 2.524721,-5.104148 3.976186,-5.844628 0.566183,-0.288845 1.420384,-0.423505 2.258366,-0.419954 z" />
    <g
       id="g845"
       transform="matrix(0.93300863,0,0,0.93300863,7.4406279,1.4220721)">
      <circle
         r="21.226145"
         cy="21.227692"
         cx="111.06846"
         id="path832"
         style="fill:#ff0000;stroke-width:0.315927;stroke-opacity:0.193548" />
      <text
         id="text836"
         y="31.43078"
         x="101.56065"
         style="font-size:29.4643px;line-height:1.15;font-family:sans-serif;letter-spacing:0px;word-spacing:0px;stroke-width:0.736611"
         xml:space="preserve"><tspan
           style="font-style:normal;font-variant:normal;font-weight:normal;font-stretch:normal;font-family:Ubuntu;-inkscape-font-specification:Ubuntu;fill:#ffffff;stroke-width:0.736611"
           y="31.43078"
           x="101.56065"
           id="tspan834"
           sodipodi:role="line">1</tspan></text>
    </g>
  </g>
</svg>
