<?xml version="1.0" encoding="UTF-8" standalone="no"?>
<!-- Created with Inkscape (http://www.inkscape.org/) -->

<svg
   width="100"
   height="100"
   viewBox="0 0 26.458333 26.458333"
   version="1.1"
   id="svg1808"
   inkscape:version="1.2.1 (9c6d41e410, 2022-07-14)"
   sodipodi:docname="pilar_durabilidade.svg"
   xmlns:inkscape="http://www.inkscape.org/namespaces/inkscape"
   xmlns:sodipodi="http://sodipodi.sourceforge.net/DTD/sodipodi-0.dtd"
   xmlns="http://www.w3.org/2000/svg"
   xmlns:svg="http://www.w3.org/2000/svg">
  <sodipodi:namedview
     id="namedview1810"
     pagecolor="#ffffff"
     bordercolor="#000000"
     borderopacity="0.25"
     inkscape:showpageshadow="2"
     inkscape:pageopacity="0.0"
     inkscape:pagecheckerboard="0"
     inkscape:deskcolor="#d1d1d1"
     inkscape:document-units="px"
     showgrid="false"
     inkscape:zoom="1.6604907"
     inkscape:cx="55.706425"
     inkscape:cy="-63.836552"
     inkscape:window-width="1600"
     inkscape:window-height="831"
     inkscape:window-x="0"
     inkscape:window-y="32"
     inkscape:window-maximized="1"
     inkscape:current-layer="layer1" />
  <defs
     id="defs1805">
    <rect
       x="2940.5879"
       y="756.28925"
       width="295.54523"
       height="191.38809"
       id="rect55286" />
    <rect
       x="2940.5879"
       y="756.28925"
       width="295.54523"
       height="191.38809"
       id="rect55288" />
    <rect
       x="2940.5879"
       y="756.28925"
       width="301.54486"
       height="201.38745"
       id="rect55290" />
    <rect
       x="2940.5879"
       y="756.28925"
       width="295.54523"
       height="191.38809"
       id="rect26009" />
    <rect
       x="2940.5879"
       y="756.28925"
       width="314.54401"
       height="204.38725"
       id="rect26007" />
  </defs>
  <g
     inkscape:label="Camada 1"
     inkscape:groupmode="layer"
     id="layer1">
    <g
       id="g39834"
       transform="matrix(1.3774839,0,0,1.3774839,-2305.5778,-678.12234)">
      <path
         d="m 1683.3641,511.49828 q -3.3614,-0.84034 -5.5222,-3.90157 -2.1608,-3.06123 -2.1608,-6.71069 v -5.7143 l 7.683,-2.88116 7.683,2.88116 v 5.7143 q 0,3.64946 -2.1608,6.71069 -2.1608,3.06123 -5.5222,3.90157 z m 0,-9.31574 q 0,0 0,0 0,0 0,0 0,0 0,0 0,0 0,0 z m 0,7.82714 q 2.761,-0.91237 4.5019,-3.44539 1.7406,-2.53301 1.7406,-5.67827 v -4.70589 l -6.2425,-2.35294 -6.2425,2.35294 v 4.70589 q 0,3.14526 1.7406,5.67827 1.7407,2.53302 4.5019,3.44539 z"
         id="path37998"
         style="fill:#002c8f;fill-opacity:1;stroke-width:0.480192" />
    </g>
  </g>
</svg>
