<?xml version="1.0" encoding="UTF-8" standalone="no"?>
<!-- Created with Inkscape (http://www.inkscape.org/) -->

<svg
   width="100"
   height="100"
   viewBox="0 0 26.458333 26.458333"
   version="1.1"
   id="svg20154"
   inkscape:version="1.2.1 (9c6d41e410, 2022-07-14)"
   sodipodi:docname="relogio.svg"
   xmlns:inkscape="http://www.inkscape.org/namespaces/inkscape"
   xmlns:sodipodi="http://sodipodi.sourceforge.net/DTD/sodipodi-0.dtd"
   xmlns="http://www.w3.org/2000/svg"
   xmlns:svg="http://www.w3.org/2000/svg">
  <sodipodi:namedview
     id="namedview20156"
     pagecolor="#ffffff"
     bordercolor="#000000"
     borderopacity="0.25"
     inkscape:showpageshadow="2"
     inkscape:pageopacity="0.0"
     inkscape:pagecheckerboard="0"
     inkscape:deskcolor="#d1d1d1"
     inkscape:document-units="px"
     showgrid="false"
     inkscape:zoom="3.3209814"
     inkscape:cx="60.524278"
     inkscape:cy="75.881185"
     inkscape:window-width="1600"
     inkscape:window-height="831"
     inkscape:window-x="0"
     inkscape:window-y="32"
     inkscape:window-maximized="1"
     inkscape:current-layer="layer1" />
  <defs
     id="defs20151" />
  <g
     inkscape:label="Camada 1"
     inkscape:groupmode="layer"
     id="layer1">
    <path
       d="m 13.229074,25.332798 q -2.282091,0 -4.3018334,-0.863446 Q 6.9074979,23.605905 5.4118938,22.110301 3.9161042,20.614697 3.0375921,18.594843 2.1585235,16.575007 2.1585235,14.262211 q 0,-2.281961 0.8790686,-4.3017956 Q 3.9161042,7.9405799 5.4118938,6.4295578 6.9074979,4.9185357 8.9272406,4.0550891 10.946983,3.1916426 13.229074,3.1916426 q 2.281905,0 4.301833,0.8634465 2.019928,0.8634466 3.530932,2.3744687 1.510818,1.5110221 2.374487,3.5308576 0.863483,2.0198356 0.863483,4.3017956 0,2.312796 -0.863483,4.332632 -0.863669,2.019854 -2.374487,3.515458 -1.511004,1.495604 -3.530932,2.359051 -2.019928,0.863446 -4.301833,0.863446 z m 0,-11.008915 q 0,0 0,0 0,0 0,0 0,0 0,0 0,0 0,0 0,0 0,0 0,0 0,0 0,0 0,0 0,0 0,0 z m 3.73131,4.964808 1.29504,-1.29517 -4.008501,-4.008835 V 8.1255962 H 12.396575 V 14.72477 Z M 5.0573349,1.1255345 6.3523748,2.4207043 1.2950399,7.2930043 0,5.9978345 Z m 16.3434781,0 5.05752,4.8723 -1.295225,1.2951698 -5.05715,-4.8723 z M 13.229074,23.482561 q 3.854692,0 6.537539,-2.682848 2.682662,-2.682847 2.682662,-6.537502 0,-3.854654 -2.682662,-6.5374834 -2.682847,-2.6828477 -6.537539,-2.6828477 -3.8546921,0 -6.5373542,2.6828477 -2.6828477,2.6828294 -2.6828477,6.5374834 0,3.854655 2.6828477,6.537502 2.6826621,2.682848 6.5373542,2.682848 z"
       id="path9147"
       style="fill:#484848;fill-opacity:1;stroke-width:0.616743" />
  </g>
</svg>
