<?xml version="1.0" encoding="UTF-8" standalone="no"?>
<!-- Created with Inkscape (http://www.inkscape.org/) -->

<svg
   width="100"
   height="100"
   viewBox="0 0 26.458333 26.458333"
   version="1.1"
   id="svg70294"
   inkscape:version="1.2.1 (9c6d41e410, 2022-07-14)"
   sodipodi:docname="icon_whatsapp_rounded_white_blue.svg"
   xmlns:inkscape="http://www.inkscape.org/namespaces/inkscape"
   xmlns:sodipodi="http://sodipodi.sourceforge.net/DTD/sodipodi-0.dtd"
   xmlns="http://www.w3.org/2000/svg"
   xmlns:svg="http://www.w3.org/2000/svg">
  <sodipodi:namedview
     id="namedview70296"
     pagecolor="#ffffff"
     bordercolor="#000000"
     borderopacity="0.25"
     inkscape:showpageshadow="2"
     inkscape:pageopacity="0.0"
     inkscape:pagecheckerboard="0"
     inkscape:deskcolor="#d1d1d1"
     inkscape:document-units="px"
     showgrid="false"
     inkscape:zoom="3.3209814"
     inkscape:cx="39.145056"
     inkscape:cy="67.449942"
     inkscape:window-width="1600"
     inkscape:window-height="831"
     inkscape:window-x="0"
     inkscape:window-y="32"
     inkscape:window-maximized="1"
     inkscape:current-layer="layer1" />
  <defs
     id="defs70291" />
  <g
     inkscape:label="Camada 1"
     inkscape:groupmode="layer"
     id="layer1">
    <circle
       style="fill:#ffffff;fill-opacity:1;stroke:none;stroke-width:0.959683;stroke-dasharray:none;stroke-opacity:1"
       id="circle79981"
       cx="13.229166"
       cy="13.229166"
       r="13.229166" />
    <path
       d="M 19.859171,6.6537461 A 9.1877686,9.1877686 0 0 0 13.332878,3.9611962 c -5.0848364,0 -9.2241596,4.1186597 -9.2261855,9.1819728 a 9.1244871,9.1244871 0 0 0 1.2316567,4.591003 L 4.029322,22.490611 8.9201495,21.213814 a 9.249395,9.249395 0 0 0 4.4090375,1.116725 h 0.0027 c 5.084476,0 9.223355,-4.119065 9.225853,-9.181975 A 9.1067024,9.1067024 0 0 0 19.858172,6.6537461 Z M 13.332878,20.780755 h -0.0027 a 7.6826684,7.6826684 0 0 1 -3.9027433,-1.0638 L 9.1473769,19.551391 6.245094,20.309092 7.0197706,17.492869 6.8374448,17.203326 A 7.5879536,7.5879536 0 0 1 5.6648983,13.143013 c 0,-4.20758 3.441601,-7.6309817 7.6715047,-7.6309817 a 7.6516483,7.6516483 0 0 1 7.665288,7.6367797 c -0.0016,4.207982 -3.441629,7.631789 -7.668174,7.631789 z m 4.205954,-5.71557 c -0.230613,-0.115084 -1.364918,-0.670024 -1.57505,-0.746542 -0.210355,-0.07673 -0.365179,-0.115085 -0.518616,0.115084 -0.153742,0.229864 -0.59557,0.744495 -0.730053,0.899574 -0.134593,0.155185 -0.268632,0.172169 -0.499162,0.05714 -0.230613,-0.115084 -0.973653,-0.356975 -1.854201,-1.138673 -0.685317,-0.608416 -1.147736,-1.359512 -1.282191,-1.589065 -0.134316,-0.229587 -0.0111,-0.354062 0.100737,-0.468189 0.10379,-0.103235 0.230613,-0.267911 0.345781,-0.402058 0.115445,-0.134122 0.154019,-0.229863 0.230613,-0.382953 0.07632,-0.152854 0.03857,-0.286979 -0.01943,-0.401597 C 11.680096,10.893404 11.21862,9.7637888 11.02672,9.3042251 10.839399,8.8567137 10.649525,8.9175168 10.508077,8.910504 10.373206,8.904674 10.218548,8.901624 10.065916,8.901624 A 0.84912615,0.84912615 0 0 0 9.451281,9.1885995 C 9.2398164,9.4184632 8.6443852,9.9743932 8.6443852,11.102712 c 0,1.128317 0.8272097,2.220207 0.9413507,2.373275 0.1140577,0.152854 1.6254751,2.470409 3.9379321,3.464324 a 13.363914,13.363914 0 0 0 1.314411,0.483099 c 0.552167,0.174472 1.054659,0.150273 1.451724,0.09086 0.442966,-0.06574 1.364891,-0.555028 1.556402,-1.091083 0.191484,-0.536024 0.192039,-0.995127 0.134594,-1.09068 -0.05717,-0.09546 -0.211465,-0.153409 -0.442105,-0.267939 z"
       fill-rule="evenodd"
       id="path79983"
       style="fill:#002c8f;fill-opacity:1;stroke:none;stroke-width:0.0413605;stroke-opacity:1" />
  </g>
</svg>
