<?xml version="1.0" encoding="UTF-8" standalone="no"?>
<svg
   inkscape:version="1.2 (dc2aedaf03, 2022-05-15)"
   sodipodi:docname="Alseh.svg"
   viewBox="0 0 4000 1800"
   height="1800"
   width="4000"
   id="svg817"
   version="1.1"
   xml:space="preserve"
   xmlns:inkscape="http://www.inkscape.org/namespaces/inkscape"
   xmlns:sodipodi="http://sodipodi.sourceforge.net/DTD/sodipodi-0.dtd"
   xmlns="http://www.w3.org/2000/svg"
   xmlns:svg="http://www.w3.org/2000/svg"
   xmlns:rdf="http://www.w3.org/1999/02/22-rdf-syntax-ns#"
   xmlns:cc="http://creativecommons.org/ns#"
   xmlns:dc="http://purl.org/dc/elements/1.1/"><metadata
     id="metadata823"><rdf:RDF><cc:Work
         rdf:about=""><dc:format>image/svg+xml</dc:format><dc:type
           rdf:resource="http://purl.org/dc/dcmitype/StillImage" /><dc:title /></cc:Work></rdf:RDF></metadata><defs
     id="defs821" /><sodipodi:namedview
     inkscape:document-rotation="0"
     inkscape:current-layer="svg817"
     inkscape:window-maximized="1"
     inkscape:window-y="-8"
     inkscape:window-x="-8"
     inkscape:cy="-678.82249"
     inkscape:cx="-486.48945"
     inkscape:zoom="0.044194175"
     showgrid="false"
     id="namedview819"
     inkscape:window-height="837"
     inkscape:window-width="1600"
     inkscape:pageshadow="2"
     inkscape:pageopacity="0"
     guidetolerance="10"
     gridtolerance="10"
     objecttolerance="10"
     borderopacity="1"
     bordercolor="#666666"
     pagecolor="#ffffff"
     inkscape:showpageshadow="0"
     inkscape:pagecheckerboard="1"
     inkscape:deskcolor="#d1d1d1" /><g
     transform="translate(321.02648,25.455844)"
     id="g1470" /><g
     transform="matrix(4.3080389,0,0,4.3080389,-13.906268,-62.615138)"
     id="g19"><path
       id="path4210"
       d="m 161.64453,40.271484 c -0.81899,0 -1.94986,1.00672 -1.97656,1.75977 -0.0125,0.352 0.28045,2.43867 0.65039,4.63867 2.21607,13.17882 2.52483,32.81191 0.81836,52 -3.24401,36.476536 -12.91133,76.332856 -28.99219,119.521486 -12.65991,34.00093 -30.85711,68.76533 -54.771479,104.63867 -16.148001,24.2232 -37.212251,51.8094 -54.332031,71.15625 -2.00301,2.26355 -4.03749,4.63003 -4.52149,5.25781 -0.98333,1.27545 -1.13501,2.64622 -0.37695,3.4043 1.0042,1.0042 1.92877,0.58738 5.48242,-2.46875 18.76711,-16.13971 42.19391,-32.30662 64.48047,-44.5 27.05971,-14.80486 54.42181,-24.5439 77.85351,-27.70899 7.51518,-1.01513 11.87396,-1.29292 20.32032,-1.29492 13.07737,-0.003 24.09836,1.26845 36.07226,4.16016 36.45574,8.80409 69.40404,32.13577 91.6836,64.92383 4.73403,6.96691 7.41092,9.64559 10.52929,10.54296 1.4443,0.41563 1.8338,0.42089 3.22266,0.0352 3.24656,-0.90167 5.18719,-5.20037 6.03711,-13.36914 0.53097,-5.1033 0.19279,-43.26796 -0.47656,-53.81836 C 331.21249,305.49387 327.12787,278.988 319.41602,248.75 305.05818,192.45314 279.72349,142.13027 244.01953,98.990234 c -5.44702,-6.58147 -17.02544,-18.41378 -23.74414,-24.26562 -15.5478,-13.5418 -31.31421,-23.96217 -45.35156,-29.97266 -3.78976,-1.62269 -12.26117,-4.48047 -13.2793,-4.48047 z"
       style="fill:#ffffff;fill-opacity:1;stroke-width:0.32"
       inkscape:connector-curvature="0"
       sodipodi:nodetypes="scssssccccsscssccscsssss" /><path
       style="fill:#e92525;fill-opacity:1;stroke-width:0.32"
       d="m 161.64453,40.271484 c -0.81899,0 -1.94986,1.006716 -1.97656,1.759766 -0.0125,0.352 0.28045,2.438672 0.65039,4.638672 2.21607,13.17882 2.52483,32.81191 0.81836,52 -3.24401,36.476538 -12.91133,76.332858 -28.99219,119.521488 -12.65991,34.00093 -30.85711,68.76533 -54.771483,104.63867 -16.148,24.2232 -37.212251,51.8094 -54.332031,71.15625 -2.00301,2.26355 -4.037485,4.63003 -4.521485,5.25781 -0.98333,1.27545 -1.135013,2.64622 -0.376953,3.4043 1.0042,1.0042 1.928772,0.58738 5.482422,-2.46875 18.76711,-16.13971 42.193909,-32.30662 64.480469,-44.5 27.059711,-14.80486 54.421811,-24.5439 77.853511,-27.70899 7.51518,-1.01513 11.87396,-1.29292 20.32032,-1.29492 13.07737,-0.003 24.09836,1.26845 36.07226,4.16016 36.45574,8.80409 69.40404,32.13577 91.6836,64.92383 4.73403,6.96691 7.41092,9.64559 10.52929,10.54296 1.4443,0.41563 1.8338,0.42089 3.22266,0.0352 3.24656,-0.90167 5.18719,-5.20037 6.03711,-13.36914 0.53097,-5.1033 0.19279,-43.26796 -0.47656,-53.81836 C 331.21249,305.49387 327.12787,278.988 319.41602,248.75 305.05818,192.45314 279.72349,142.13027 244.01953,98.990234 c -5.44702,-6.58147 -17.02544,-18.413785 -23.74414,-24.265625 -15.5478,-13.5418 -31.31421,-23.962166 -45.35156,-29.972656 -3.78976,-1.62269 -12.26117,-4.480469 -13.2793,-4.480469 z M 192.38086,84.75 h 17.83398 17.83399 l 4.01172,4.080078 c 3.42649,3.48522 6.62128,7.013516 8.24609,9.103516 0.56425,0.72579 1.92752,-3.605921 -20.51367,65.216796 -5.02151,15.4 -11.51666,35.34431 -14.43359,44.32031 -2.91693,8.976 -5.58408,17.10965 -5.92579,18.07422 -0.3417,0.96458 -0.55245,1.86458 -0.46875,2 0.0837,0.13543 11.51493,0.2461 25.40235,0.2461 23.72188,0 25.26804,-0.0344 25.54492,-0.56055 0.42493,-0.80743 1.80978,-5.08576 14.2793,-44.08008 1.46331,-4.576 3.48345,-10.91208 4.48828,-14.08008 1.00483,-3.168 2.98798,-9.32281 4.40625,-13.67773 l 2.57812,-7.91797 1.42188,2.47851 c 6.64462,11.57863 11.29046,20.49039 16.30273,31.27735 2.60114,5.59793 9.68153,22.6054 11.11524,26.69922 0.58978,1.68407 1.37912,3.87784 1.75586,4.875 l 0.68554,1.8125 -1.30859,4.26758 c -0.71968,2.34684 -1.65337,5.22335 -2.07422,6.39257 -0.42085,1.16923 -0.67709,2.21355 -0.57031,2.32032 0.10677,0.10675 2.02708,0.19336 4.26758,0.19336 h 4.07421 l 1.14063,3.5996 c 1.5595,4.918 5.96484,20.94086 5.96484,21.69532 0,0.18795 -4.57763,0.30468 -11.92578,0.30468 h -11.92773 l -1.87696,5.83985 c -1.03315,3.212 -3.79311,11.74494 -6.13281,18.96094 -4.60794,14.21166 -8.24215,25.52468 -14.87695,46.32031 l -4.26172,13.35937 h -9.23242 c -8.53253,0 -9.32437,-0.0481 -10.45899,-0.62695 -4.30254,-2.19498 -14.36631,-5.66464 -22.74609,-7.8418 -3.08,-0.80023 -5.98364,-1.56221 -6.45312,-1.69336 l -0.85352,-0.23828 11.97266,-36.77539 c 6.58548,-20.2268 11.97265,-36.8967 11.97265,-37.04297 0,-0.1463 -11.2645,-0.22869 -25.0332,-0.18359 l -25.0332,0.082 -2.42969,6.24024 c -5.76858,14.82477 -13.04776,29.49047 -20.99414,42.29296 -6.52045,10.50519 -20.33658,27.78711 -22.21485,27.78711 -1.13421,0 -12.82766,3.65507 -20.04297,6.26563 -8.6362,3.12464 -23.17477,9.54335 -31.394526,13.86133 -3.04862,1.60151 -5.603835,2.91211 -5.677735,2.91211 -0.20395,0 -11.804502,6.58286 -14.539062,8.25 -1.32,0.80473 -3.839609,2.35449 -5.599609,3.44336 -3.150071,1.94883 -3.242372,1.98161 -5.919922,2.125 -2.39713,0.12835 -12.589791,-0.20586 -13.650391,-0.44727 -0.21952,-0.05 2.482899,-3.90631 6.005859,-8.57031 3.52297,-4.664 7.918288,-10.59235 9.767578,-13.17383 l 3.363282,-4.69336 2.617187,0.1582 c 4.89096,0.29559 11.653895,-1.57738 16.859375,-4.66992 8.36826,-4.97148 16.271134,-13.29369 24.787114,-26.10156 4.43682,-6.67288 6.41755,-10.08824 10.40039,-17.91992 3.51872,-6.91904 5.90944,-12.1641 8.88281,-19.4961 2.14098,-5.27944 6.16601,-16.96031 6.16601,-17.89257 0,-0.45976 -0.41901,-0.52923 -3.11914,-0.51563 -3.3558,0.0169 -10.50019,0.43769 -13.77734,0.81055 l -2.01758,0.22851 0.78711,-1.72656 c 3.86832,-8.49301 8.67881,-19.37879 9.66602,-21.87305 l 1.20898,-3.05468 h 7.74805 c 5.81758,0 7.8241,-0.10002 8.05859,-0.4004 0.34179,-0.43782 3.28769,-9.46633 9.52735,-29.19921 2.2261,-7.04 4.96549,-15.60902 6.08789,-19.04102 1.12241,-3.432 3.7121,-11.49592 5.7539,-17.91992 2.0418,-6.424 5.35135,-16.79106 7.35547,-23.03906 2.00412,-6.248 5.17536,-16.18408 7.04688,-22.08008 1.87153,-5.896 4.90943,-15.36502 6.75,-21.041018 z"
       id="path1445" /><path
       style="fill:#002c8f;fill-opacity:1;stroke-width:0.32"
       d="m 633.59961,148.51172 c -0.94716,-0.009 -1.90227,-0.008 -2.8457,0.002 -3.77374,0.0403 -7.36843,0.23568 -9.59375,0.57422 -12.37175,1.88212 -20.68015,5.61663 -27.36133,12.30078 -5.07607,5.07832 -7.89792,10.13929 -9.55274,17.12305 -1.10928,4.68136 -1.28158,6.14355 -1.30078,11.03906 -0.042,10.70652 1.93992,19.52088 5.68555,25.2793 2.28925,3.5194 8.00071,8.19683 13.23242,10.83594 2.47258,1.24728 8.60456,3.70286 10.97656,4.39648 1.144,0.33452 3.02516,0.89622 4.18164,1.24805 1.15651,0.35183 2.34296,0.64062 2.63477,0.64062 0.48704,0 2.54068,0.57267 6.3457,1.77149 0.81562,0.25698 1.71908,0.46875 2.00586,0.46875 0.28676,0 0.77054,0.12578 1.07617,0.28125 0.99997,0.50869 2.13353,0.94954 3.43555,1.33398 0.704,0.20786 1.89571,0.6487 2.64844,0.98047 0.75271,0.33177 1.5047,0.60352 1.67187,0.60351 0.16716,0 1.85583,0.75095 3.75196,1.66797 2.76464,1.33707 3.86214,2.08159 5.53711,3.75977 2.4929,2.49762 3.2692,3.92669 4.52539,8.33203 0.81287,2.85063 1.16043,12.40783 0.59179,16.27149 -1.06919,7.26447 -4.68897,13.27548 -9.31054,15.46289 -1.58915,0.75214 -4.70468,1.67686 -8.45508,2.50781 -1.4265,0.31606 -6.81552,0.73681 -9.28125,0.72461 -2.72071,-0.0134 -9.80499,-0.69184 -12.16016,-1.16407 -6.27619,-1.25839 -13.96958,-3.72367 -19.35937,-6.20312 -3.53655,-1.62691 -3.45818,-1.58926 -6.40039,-3.0918 -1.496,-0.76399 -2.77289,-1.3412 -2.83789,-1.2832 -0.065,0.058 0.10511,1.08491 0.37695,2.28125 0.2718,1.19632 0.71381,3.18206 0.98242,4.41406 0.26857,1.232 0.84502,3.82377 1.28125,5.75977 0.43619,1.936 1.19893,5.3746 1.69531,7.64062 l 0.90235,4.1211 1.91992,0.89648 c 2.23929,1.04751 4.72511,1.97003 7.19922,2.66797 0.968,0.27307 2.768,0.7792 4,1.12695 3.51107,0.99107 12.22453,2.5799 16.71484,3.04688 8.07843,0.84013 20.24527,0.51653 28.02149,-0.7461 6.26282,-1.01689 14.7895,-4.04298 18.16601,-6.44726 0.48298,-0.34392 0.98208,-0.625 1.11133,-0.625 0.47712,0 4.61524,-3.59866 6.11719,-5.32031 7.0991,-8.13755 10.60801,-17.07128 11.80078,-30.04102 1.20598,-13.11311 0.32966,-22.45518 -2.83789,-30.27734 -2.43722,-6.0186 -5.70863,-9.99357 -12.21289,-14.83594 -4.2465,-3.16149 -9.32322,-5.89654 -13.75586,-7.41016 -2.2808,-0.77882 -8.81658,-2.83169 -10.56445,-3.31836 -2.88244,-0.80258 -17.75264,-5.97806 -20.04883,-6.97851 -3.94989,-1.72094 -7.7645,-4.90979 -8.80469,-7.35742 -0.80692,-1.89864 -1.04457,-4.04582 -0.75586,-6.82227 0.66393,-6.38468 3.31682,-10.69327 7.69336,-12.49219 4.4041,-1.81026 6.04298,-2.14304 14.07617,-2.84765 3.60333,-0.31606 16.92409,0.5526 19.83985,1.29297 4.70175,1.19388 8.3306,2.30075 10.40039,3.17382 1.54051,0.64982 3.92672,1.62016 4.93945,2.00977 0.60458,0.23259 2.73284,1.22973 4.73047,2.21484 1.99766,0.98512 3.7006,1.68249 3.7832,1.54883 0.0826,-0.13365 -0.0835,-1.30034 -0.36914,-2.5918 -0.2857,-1.29146 -0.63352,-2.9249 -0.77148,-3.6289 -0.33689,-1.71915 -1.10555,-5.26162 -1.73633,-8 -0.28378,-1.232 -0.71649,-3.24652 -0.96289,-4.47852 -0.24636,-1.232 -0.60324,-2.88964 -0.79297,-3.68164 -0.18976,-0.792 -0.41385,-1.74387 -0.49805,-2.11719 -0.0991,-0.43926 -0.6913,-0.90881 -1.67773,-1.33007 -4.8953,-2.09058 -20.92524,-5.83204 -24.98828,-5.83204 -0.89104,0 -4.04022,-0.23417 -6.99805,-0.51953 -2.20314,-0.21254 -4.97689,-0.33093 -7.81836,-0.35937 z m -213.79102,1.51367 -17.11328,0.082 -17.11523,0.084 -0.38477,1.11914 c -0.21117,0.616 -0.71248,2.34384 -1.11523,3.83984 -0.40272,1.496 -0.847,2.94116 -0.98633,3.21094 -0.13933,0.26978 -0.35599,0.98939 -0.48242,1.59961 -0.1264,0.61022 -0.49914,1.97329 -0.82813,3.02929 -0.92765,2.97745 -2.45084,8.02869 -3.37695,11.20118 -0.4624,1.584 -1.09556,3.74282 -1.4082,4.79882 -0.31261,1.056 -0.81694,2.78385 -1.1211,3.83985 -0.30416,1.056 -0.8982,3.07247 -1.32031,4.48047 -0.42215,1.408 -0.99959,3.35231 -1.28125,4.32031 -0.2817,0.968 -0.62643,2.12055 -0.76758,2.56055 -0.14112,0.44 -0.50385,1.66275 -0.80469,2.71875 -0.55826,1.95959 -1.83499,6.29597 -3.20507,10.88086 -0.42074,1.408 -1.20693,4.07192 -1.7461,5.91992 -0.53917,1.848 -1.20104,4.07898 -1.4707,4.95898 -0.41143,1.34245 -1.75469,5.8892 -3.83008,12.96094 -0.23245,0.79199 -1.0937,3.67239 -1.91406,6.40039 -0.82032,2.728 -1.6084,5.39192 -1.75195,5.91992 -0.14358,0.528 -0.48746,1.71663 -0.76368,2.64063 -0.27623,0.924 -0.7255,2.43537 -0.99804,3.35937 -0.27254,0.924 -0.69264,2.32714 -0.93555,3.11914 -0.24292,0.792 -0.80023,2.73631 -1.23828,4.32031 -0.43804,1.58401 -0.9583,3.30131 -1.15625,3.81641 -0.19798,0.51509 -0.66021,2.02647 -1.02539,3.35938 -0.36516,1.3329 -0.78108,2.85676 -0.92578,3.38476 -0.14468,0.528 -0.61837,2.11153 -1.05078,3.51953 -0.78426,2.55389 -3.74131,12.46895 -4.53321,15.19922 -0.22973,0.792 -0.9376,3.24141 -1.57226,5.44141 -0.63462,2.2 -1.59531,5.43922 -2.13477,7.19922 -1.55255,5.06518 -1.57226,5.13761 -1.57226,5.70312 0,0.49198 0.87409,0.53711 10.36132,0.53711 7.89946,0 10.44002,-0.0954 10.69141,-0.40039 0.18134,-0.22 0.55091,-1.19216 0.82227,-2.16016 0.27139,-0.968 0.79763,-2.768 1.16797,-4 0.76873,-2.55723 2.13855,-7.2162 2.54101,-8.63867 0.14938,-0.528 0.87647,-2.9774 1.61523,-5.4414 0.73875,-2.464 1.53148,-5.20008 1.76172,-6.08008 0.23024,-0.88 0.81092,-2.89452 1.29102,-4.47852 0.48013,-1.584 1.02284,-3.49223 1.20508,-4.24023 l 0.33203,-1.36133 h 26.26953 26.26953 l 1.08203,3.44141 c 0.59456,1.892 1.41291,4.44768 1.82032,5.67968 0.40739,1.232 1.47874,4.61554 2.3789,7.51953 0.90013,2.90401 1.91265,6.14322 2.25,7.19922 0.33734,1.056 1.20303,3.79208 1.92383,6.08008 0.72083,2.288 1.52689,4.77349 1.79101,5.52149 l 0.47852,1.35937 h 15.17383 c 10.86899,0 15.17383,-0.10007 15.17383,-0.35351 0,-0.51392 -0.92387,-4.04975 -1.4961,-5.72657 -0.27027,-0.792 -0.84916,-2.66415 -1.28711,-4.16015 -2.36771,-8.08781 -4.26985,-14.42405 -5.76171,-19.19922 -0.79733,-2.552 -1.65848,-5.43239 -1.91407,-6.40039 -0.25555,-0.968 -0.72204,-2.55153 -1.03711,-3.51953 -0.8074,-2.48031 -2.11188,-6.7795 -2.91406,-9.60157 -0.37523,-1.32 -0.87378,-2.97568 -1.10742,-3.67968 -0.23363,-0.704 -0.67055,-2.14322 -0.97266,-3.19922 -0.30211,-1.056 -0.94994,-3.21678 -1.43945,-4.80078 -0.4895,-1.584 -1.21001,-3.9593 -1.59961,-5.2793 -0.3896,-1.32 -1.03898,-3.48078 -1.44336,-4.80078 -0.40439,-1.32 -1.26735,-4.19844 -1.91797,-6.39844 -0.65062,-2.2 -1.36508,-4.57725 -1.58789,-5.28125 -0.22282,-0.704 -1.22435,-4.01537 -2.22461,-7.35937 -1.00025,-3.344 -2.23784,-7.4491 -2.75,-9.1211 -0.51213,-1.672 -1.44128,-4.7669 -2.0664,-6.8789 -0.62509,-2.112 -1.37172,-4.63161 -1.65821,-5.59961 -0.2865,-0.968 -0.70601,-2.33702 -0.93359,-3.04102 -0.22759,-0.704 -0.86481,-2.79067 -1.41406,-4.63867 -0.54925,-1.848 -1.27761,-4.29741 -1.61914,-5.44141 -0.34154,-1.144 -0.83552,-2.79969 -1.09766,-3.67969 -2.1816,-7.324 -4.75069,-15.82878 -5.46289,-18.08007 -1.31132,-4.14518 -2.36733,-7.61688 -2.55469,-8.40235 z m 59.91016,0.006 v 77.75977 77.75976 h 47.52148 47.51954 v -9.91992 -9.91992 h -32.16016 -32.16016 v -67.83985 -67.83984 h -15.35937 z m 223.36133,0 v 77.75977 77.76171 l 45.83984,-0.0801 45.83985,-0.082 v -9.75976 -9.75977 l -30.48047,-0.082 -30.48047,-0.082 v -25.59765 -25.59961 h 24.96094 24.95898 v -10.07813 -10.08008 h -24.95898 -24.96094 v -22.08008 -22.08007 h 29.91992 29.92187 v -10.08008 -10.08008 h -45.28124 z m 107.83984,0 v 77.75977 77.75976 h 15.35938 15.36132 v -35.51953 -35.51953 h 22.07813 22.08008 v 35.51953 35.51953 h 15.04101 15.03907 v -77.75976 -77.75977 h -15.03907 -15.04101 v 32.16016 32.16015 H 863.71875 841.64062 V 182.19141 150.03125 H 826.2793 Z m -412.90039,31.15234 c 0.0722,0.0722 0.71058,1.98516 1.41992,4.25 1.40374,4.48212 1.58366,5.09107 2.34961,7.95703 0.28224,1.05601 0.64187,2.20855 0.79883,2.56055 0.15699,0.352 0.49711,1.36024 0.75586,2.24024 0.88992,3.02684 2.50016,8.32035 2.77344,9.11914 0.15056,0.44 0.72925,2.31215 1.28515,4.16015 0.55591,1.848 1.34088,4.43977 1.7461,5.75977 0.40521,1.32 1.12953,3.69725 1.60742,5.28125 0.96208,3.18888 2.42289,7.93097 3.35156,10.8789 0.33267,1.05601 0.98612,3.21679 1.45313,4.80079 0.46698,1.584 1.12673,3.6858 1.46484,4.67187 0.33811,0.98607 0.61328,1.95823 0.61328,2.16016 0,0.27214 -5.00265,0.36719 -19.33398,0.36718 H 378.9707 l 0.42774,-1.19921 c 0.23478,-0.66 0.73587,-2.27961 1.11523,-3.59961 0.37936,-1.32 1.0404,-3.55294 1.4668,-4.96094 0.4264,-1.408 1.26908,-4.28839 1.87305,-6.40039 1.50128,-5.24974 2.01489,-7.01163 2.75195,-9.43945 0.3473,-1.144 0.91608,-3.08832 1.26367,-4.32032 0.34761,-1.232 1.08267,-3.75161 1.63477,-5.59961 0.55209,-1.848 1.18465,-4.08093 1.40429,-4.96093 0.21965,-0.88 0.91555,-3.2553 1.54688,-5.2793 0.63136,-2.024 1.60672,-5.33538 2.16797,-7.35938 0.56125,-2.024 1.34544,-4.68792 1.74218,-5.91992 0.3967,-1.232 0.90065,-2.92848 1.1211,-3.76953 0.22045,-0.84105 0.461,-1.47064 0.5332,-1.39844 z"
       id="path1451" /><path
       id="path1482"
       d="m 728.67383,320.34532 c -0.44507,-0.005 -0.9087,0.0182 -1.38672,0.0723 -4.45776,0.50434 -4.94563,1.10601 -9.1582,11.30273 -1.83431,4.44001 -3.4362,7.96476 -3.56055,7.83203 -0.12435,-0.13277 -1.64175,-3.83625 -3.37305,-8.22851 -3.44627,-8.74297 -4.07659,-9.73884 -6.59375,-10.45313 -0.74924,-0.21261 -2.44172,-0.39956 -3.76172,-0.41406 -2.73501,-0.0301 -4.47114,0.64026 -5.58007,2.15625 -0.64384,0.8802 -0.66234,1.30839 -0.74024,16.80078 -0.0863,17.14 -0.11583,16.81431 1.62305,18.10547 0.74652,0.55431 1.3647,0.67188 3.55273,0.67188 4.78486,0 5.36894,-0.78382 5.61524,-7.52149 l 0.16992,-4.63867 2.02344,5.11914 c 1.11348,2.816 2.26602,5.39232 2.56054,5.72461 1.87056,2.11047 7.42108,1.94926 8.86719,-0.25781 0.29821,-0.45513 1.45845,-2.94046 2.57813,-5.52344 1.11968,-2.58294 2.18347,-4.84363 2.36328,-5.02344 0.2225,-0.22249 0.32903,1.20046 0.33203,4.45703 0.005,5.16867 0.17163,5.85936 1.69726,6.99219 0.74653,0.55431 1.36471,0.67188 3.55274,0.67188 4.44976,0 5.29025,-0.90718 5.63281,-6.08008 0.11658,-1.76 0.23422,-2.93389 0.26172,-2.60742 0.0721,0.85241 1.51637,3.62642 2.58984,4.97461 1.16554,1.46381 3.83244,3.07312 6.09961,3.67968 2.61104,0.69859 6.87214,0.64352 9.34766,-0.12109 4.08531,-1.26186 7.30519,-4.49547 8.58984,-8.62305 0.34243,-1.10029 0.64262,-2.31108 0.66602,-2.6914 0.0234,-0.38032 0.16313,0.45389 0.31054,1.85351 0.41422,3.93261 1.14243,5.85414 2.875,7.58985 1.71745,1.72054 3.82347,2.50859 6.66993,2.49609 3.72867,-0.0164 6.10807,-1.0826 6.95898,-3.11914 l 0.46485,-1.11133 0.85937,0.79883 c 2.77289,2.58151 5.96821,3.57788 10.80664,3.36914 2.75779,-0.11898 3.53042,-0.28052 5.31836,-1.11719 5.31258,-2.48605 7.94059,-7.18063 7.92969,-14.16601 -0.008,-5.01795 -0.98407,-8.10049 -3.44922,-10.89649 -4.61494,-5.23436 -14.92368,-5.51763 -20.2832,-0.55664 l -1.17579,1.08984 -0.1914,-1.02343 c -0.36256,-1.93253 -2.46591,-3.33289 -5.01563,-3.33789 -0.76791,-0.002 -0.85629,-0.14012 -1.05664,-1.65039 -0.40637,-3.06341 -2.91736,-4.54037 -6.74218,-3.9668 -2.45132,0.36759 -3.98691,2.2753 -4.00391,4.97656 -0.004,0.62725 -0.27846,0.91418 -1.27344,1.33203 -0.85927,0.36085 -1.43732,0.88719 -1.79101,1.62891 l -0.52344,1.0957 -2.02539,-1.35937 c -3.32317,-2.22842 -7.87214,-2.92268 -12.30078,-1.87891 -4.43744,1.04585 -7.77864,4.00708 -9.30469,8.24609 l -0.5957,1.6543 -0.0137,-6.55859 c -0.007,-3.608 -0.16196,-7.09547 -0.34375,-7.75 -0.69902,-2.51694 -2.95678,-3.97926 -6.07226,-4.01563 z M 825,320.46251 c -4.77853,-0.0294 -5.40211,0.0312 -6.56055,0.63867 -0.704,0.36917 -1.56792,1.16094 -1.91992,1.75977 -0.6166,1.04886 -0.64062,1.66566 -0.64062,16.80078 0,16.99114 -0.0195,16.7748 1.73437,17.9668 0.62858,0.4272 1.47972,0.5625 3.54688,0.5625 4.51511,0 5.43945,-1.11765 5.43945,-6.57422 0,-3.10263 0.0368,-3.27246 0.88086,-4.11524 0.62684,-0.62592 1.46802,-0.9926 2.92773,-1.27929 3.99433,-0.78451 6.99788,-2.68471 9.14649,-5.78516 0.82586,-1.19168 0.92275,-1.24148 1.55469,-0.79883 0.3704,0.25943 0.96542,0.47642 1.32226,0.48242 0.53257,0.009 0.42694,0.1921 -0.58398,1.01758 -2.65955,2.17164 -4.07706,6.14272 -3.38672,9.48828 0.83171,4.03056 2.87565,6.29927 6.85937,7.61524 0.88585,0.29261 2.21639,0.3657 4.32031,0.24023 1.67202,-0.0998 4.70033,-0.20593 6.73047,-0.23633 6.33104,-0.0948 6.38868,-0.20054 6.38868,-11.67187 0,-9.22867 -0.23752,-11.09746 -1.72852,-13.5957 -2.38253,-3.99195 -8.22453,-5.65593 -14.35547,-4.0879 -1.33453,0.34132 -3.04032,0.91856 -3.79101,1.28126 -0.75065,0.36267 -1.39439,0.6582 -1.42969,0.6582 -0.0354,0 -0.16314,-0.53137 -0.28516,-1.18164 -0.5254,-2.80072 -2.65787,-5.68474 -5.36328,-7.25586 -2.47616,-1.43799 -5.02652,-1.89409 -10.80664,-1.92969 z m 61.80664,2.41797 c -1.74297,-0.0255 -3.35613,0.48334 -4.16992,1.34961 -0.43814,0.46636 -0.86489,1.53101 -1.08984,2.71484 -0.41936,2.20659 -0.65772,2.35686 -2.75782,1.74024 -1.89827,-0.55734 -3.38152,-0.50652 -5.3789,0.18359 -1.17306,0.4053 -1.76999,0.47613 -2.00782,0.23828 -0.18611,-0.18611 -1.45057,-0.34265 -2.81054,-0.34765 -2.96864,-0.0104 -4.31725,0.7198 -4.88477,2.64648 -0.23234,0.78894 -0.31515,5.1002 -0.24805,12.91992 l 0.0996,11.73438 0.76758,0.8164 c 1.06166,1.12953 2.618,1.5671 5.02149,1.41407 2.20198,-0.14022 3.49087,-0.81743 4.20703,-2.21094 0.27146,-0.52825 0.39825,-2.67386 0.40625,-6.84961 0.0102,-5.29613 0.0918,-6.25473 0.62695,-7.43359 0.71354,-1.57181 2.34821,-2.74076 3.53125,-2.5254 0.44,0.0801 1.34,-0.041 2,-0.26953 l 1.19922,-0.41601 0.004,4.20312 c 0.006,10.31715 1.33981,13.61521 6.18359,15.28906 2.90915,1.00535 7.43531,0.5911 9.08984,-0.83203 0.82448,-0.70919 0.8616,-0.71157 1.82227,-0.15234 2.75642,1.60451 8.24316,2.04105 11.74805,0.93555 3.02925,-0.95549 4.80632,-2.4167 6.07617,-4.9961 0.90426,-1.83683 1.05777,-2.48581 1.04687,-4.41797 -0.0213,-3.79331 -1.56973,-6.41523 -4.89258,-8.29101 l -1.40234,-0.79297 1.14648,0.0332 c 2.33751,0.0662 3.6807,-1.32807 3.96876,-4.11914 0.37651,-3.64807 -1.31169,-5.62558 -5.72461,-6.70703 -3.88199,-0.95132 -8.18433,-0.18233 -11.00196,1.9668 -0.97005,0.73987 -1.24369,0.8288 -1.37109,0.44531 -0.47574,-1.4319 -2.6101,-2.55859 -4.84766,-2.55859 -0.81085,0 -0.89049,-0.11724 -1.06445,-1.58594 -0.3263,-2.75522 -1.44614,-3.76156 -4.54102,-4.08008 -0.25237,-0.026 -0.50295,-0.0413 -0.75195,-0.0449 z m -63.40625,10.67003 c -455.12409,43.73645 -227.56205,21.86822 0,0 z m 5.39844,-2.40039 c 1.24307,0 1.64062,0.55331 1.64062,2.28125 0,1.25315 -0.14529,1.6264 -0.84375,2.17578 -0.4736,0.37254 -1.31503,0.66406 -1.91992,0.66406 h -1.07617 v -1.71679 c 0,-2.08781 0.85,-3.4043 2.19922,-3.4043 z m -66.14453,7.3616 c 0.1455,0 0.26562,0.43098 0.26562,0.95898 0,0.528 -0.0551,0.96094 -0.12304,0.96094 -0.068,0 -0.18813,-0.43294 -0.26563,-0.96094 -0.0775,-0.528 -0.0225,-0.95898 0.12305,-0.95898 z m 14.22265,0.0195 c 0.4275,-0.0336 0.38313,0.17049 0.20313,0.98047 -0.132,0.59402 -0.24024,2.7587 -0.24024,4.8125 0,3.11782 -0.0797,3.73138 -0.48046,3.70898 -0.26401,-0.0148 -0.94754,0.0799 -1.51954,0.21094 l -1.04101,0.23828 v -4.00781 c 0,-3.70026 0.0559,-4.07072 0.7207,-4.82617 0.396,-0.45002 1.18777,-0.90776 1.75977,-1.01758 0.25999,-0.0499 0.45515,-0.0884 0.59765,-0.0996 z m 117.84375,0.19531 c 1.04314,-0.0539 1.08373,-0.008 1.52149,1.70508 0.86471,3.38346 2.69692,5.18453 7.31836,7.19727 2.256,0.98253 2.42646,1.11195 1.43945,1.09375 -0.616,-0.0113 -1.98502,-0.44812 -3.04102,-0.97071 -2.09959,-1.03905 -3.4054,-1.06299 -4.89062,-0.0898 -0.52707,0.34535 -1.55502,0.55518 -2.84766,0.58398 l -2.02148,0.0469 v -3.91406 c 0,-3.60388 0.0571,-3.97798 0.72461,-4.75391 0.48346,-0.56208 1.08177,-0.86154 1.79687,-0.89844 z m -102.80273,0.10352 c 1.54633,0 2.15625,1.31294 2.15625,4.64062 0,2.73811 -0.54732,4.33571 -1.69727,4.95118 -0.78096,0.41811 -2.56659,0.40776 -3.29687,-0.0176 -1.51203,-0.88067 -2.0525,-4.83137 -0.95899,-7.00782 0.70809,-1.40938 2.41886,-2.5664 3.79688,-2.5664 z m -42.24805,0.002 c 1.6784,-0.004 2.19295,0.91845 2.32031,4.1582 0.1255,3.19328 -0.385,4.77902 -1.74023,5.39649 -2.33664,1.06467 -4.37062,-0.25272 -4.75977,-3.08203 -0.46819,-3.40423 1.50923,-6.46666 4.17969,-6.47266 z"
       style="fill:#fff5f5;fill-opacity:1;stroke-width:0.32"
       inkscape:connector-curvature="0"
       sodipodi:nodetypes="cccccscccsscccccccccsccccccscccccccccccccccccccccccccccccccscsscccccccccsscccscscccccscccccccccccccccccccccccscccsccccccsscscsscsssccscccsccccccccccccscccccccccccscccs" /><path
       style="fill:#343434;stroke-width:0.32;fill-opacity:1"
       d="m 728.67383,320.3457 c -0.44507,-0.005 -0.9087,0.0182 -1.38672,0.0723 -4.45776,0.50434 -4.94563,1.10601 -9.1582,11.30273 -1.83431,4.44001 -3.4362,7.96476 -3.56055,7.83203 -0.12435,-0.13277 -1.64175,-3.83625 -3.37305,-8.22851 -3.44627,-8.74297 -4.07659,-9.73884 -6.59375,-10.45313 -0.74924,-0.21261 -2.44172,-0.39956 -3.76172,-0.41406 -2.73501,-0.0301 -4.47114,0.64026 -5.58007,2.15625 -0.64384,0.8802 -0.66234,1.30839 -0.74024,16.80078 -0.0863,17.14 -0.11583,16.81431 1.62305,18.10547 0.74652,0.55431 1.3647,0.67188 3.55273,0.67188 4.78486,0 5.36894,-0.78382 5.61524,-7.52149 l 0.16992,-4.63867 2.02344,5.11914 c 1.11348,2.816 2.26602,5.39232 2.56054,5.72461 1.87056,2.11047 7.42108,1.94926 8.86719,-0.25781 0.29821,-0.45513 1.45845,-2.94046 2.57813,-5.52344 1.11968,-2.58294 2.18347,-4.84363 2.36328,-5.02344 0.2225,-0.22249 0.32903,1.20046 0.33203,4.45703 0.005,5.16867 0.17163,5.85936 1.69726,6.99219 0.74653,0.55431 1.36471,0.67188 3.55274,0.67188 4.44976,0 5.29025,-0.90718 5.63281,-6.08008 0.11658,-1.76 0.23422,-2.93389 0.26172,-2.60742 0.0721,0.85241 1.51637,3.62642 2.58984,4.97461 1.16554,1.46381 3.83244,3.07312 6.09961,3.67968 2.61104,0.69859 6.87214,0.64352 9.34766,-0.12109 4.08531,-1.26186 7.30519,-4.49547 8.58984,-8.62305 0.34243,-1.10029 0.64262,-2.31108 0.66602,-2.6914 0.0234,-0.38032 0.16313,0.45389 0.31054,1.85351 0.41422,3.93261 1.14243,5.85414 2.875,7.58985 1.71745,1.72054 3.82347,2.50859 6.66993,2.49609 3.72867,-0.0164 6.10807,-1.0826 6.95898,-3.11914 l 0.46485,-1.11133 0.85937,0.79883 c 2.77289,2.58151 5.96821,3.57788 10.80664,3.36914 2.75779,-0.11898 3.53042,-0.28052 5.31836,-1.11719 5.31258,-2.48605 7.94059,-7.18063 7.92969,-14.16601 -0.008,-5.01795 -0.98407,-8.10049 -3.44922,-10.89649 -4.61494,-5.23436 -14.92368,-5.51763 -20.2832,-0.55664 l -1.17579,1.08984 -0.1914,-1.02343 c -0.36256,-1.93253 -2.46591,-3.33289 -5.01563,-3.33789 -0.76791,-0.002 -0.85629,-0.14012 -1.05664,-1.65039 -0.40637,-3.06341 -2.91736,-4.54037 -6.74218,-3.9668 -2.45132,0.36759 -3.98691,2.2753 -4.00391,4.97656 -0.004,0.62725 -0.27846,0.91418 -1.27344,1.33203 -0.85927,0.36085 -1.43732,0.88719 -1.79101,1.62891 l -0.52344,1.0957 -2.02539,-1.35937 c -3.32317,-2.22842 -7.87214,-2.92268 -12.30078,-1.87891 -4.43744,1.04585 -7.77864,4.00708 -9.30469,8.24609 l -0.5957,1.6543 -0.0137,-6.55859 c -0.007,-3.608 -0.16196,-7.09547 -0.34375,-7.75 -0.69902,-2.51694 -2.95678,-3.97926 -6.07226,-4.01563 z M 825,320.46289 c -4.77853,-0.0294 -5.40211,0.0312 -6.56055,0.63867 -0.704,0.36917 -1.56792,1.16094 -1.91992,1.75977 -0.6166,1.04886 -0.64062,1.66566 -0.64062,16.80078 0,16.99114 -0.0195,16.7748 1.73437,17.9668 0.62858,0.4272 1.47972,0.5625 3.54688,0.5625 4.51511,0 5.43945,-1.11765 5.43945,-6.57422 0,-3.10263 0.0368,-3.27246 0.88086,-4.11524 0.62684,-0.62592 1.46802,-0.9926 2.92773,-1.27929 3.99433,-0.78451 6.99788,-2.68471 9.14649,-5.78516 0.82586,-1.19168 0.92275,-1.24148 1.55469,-0.79883 0.3704,0.25943 0.96542,0.47642 1.32226,0.48242 0.53257,0.009 0.42694,0.1921 -0.58398,1.01758 -2.65955,2.17164 -4.07706,6.14272 -3.38672,9.48828 0.83171,4.03056 2.87565,6.29927 6.85937,7.61524 0.88585,0.29261 2.21639,0.3657 4.32031,0.24023 1.67202,-0.0997 4.70033,-0.20593 6.73047,-0.23633 6.33104,-0.0948 6.38868,-0.20054 6.38868,-11.67187 0,-9.22867 -0.23752,-11.09746 -1.72852,-13.5957 -2.38253,-3.99195 -8.22453,-5.65593 -14.35547,-4.0879 -1.33453,0.34132 -3.04032,0.91856 -3.79101,1.28126 -0.75065,0.36267 -1.39439,0.6582 -1.42969,0.6582 -0.0354,0 -0.16314,-0.53137 -0.28516,-1.18164 -0.5254,-2.80072 -2.65787,-5.68474 -5.36328,-7.25586 -2.47616,-1.43799 -5.02652,-1.89409 -10.80664,-1.92969 z m 61.80664,2.41797 c -1.74297,-0.0255 -3.35613,0.48334 -4.16992,1.34961 -0.43814,0.46636 -0.86489,1.53101 -1.08984,2.71484 -0.41936,2.20659 -0.65772,2.35686 -2.75782,1.74024 -1.89827,-0.55734 -3.38152,-0.50652 -5.3789,0.18359 -1.17306,0.4053 -1.76999,0.47613 -2.00782,0.23828 -0.18611,-0.18611 -1.45057,-0.34265 -2.81054,-0.34765 -2.96864,-0.0104 -4.31725,0.7198 -4.88477,2.64648 -0.23234,0.78894 -0.31515,5.1002 -0.24805,12.91992 l 0.0996,11.73438 0.76758,0.8164 c 1.06166,1.12953 2.618,1.5671 5.02149,1.41407 2.20198,-0.14022 3.49087,-0.81743 4.20703,-2.21094 0.27146,-0.52825 0.39825,-2.67386 0.40625,-6.84961 0.0102,-5.29613 0.0918,-6.25473 0.62695,-7.43359 0.71354,-1.57181 2.34821,-2.74076 3.53125,-2.5254 0.44,0.0801 1.34,-0.041 2,-0.26953 l 1.19922,-0.41601 0.004,4.20312 c 0.006,10.31715 1.33981,13.61521 6.18359,15.28906 2.90915,1.00535 7.43531,0.5911 9.08984,-0.83203 0.82448,-0.70919 0.8616,-0.71157 1.82227,-0.15234 2.75642,1.60451 8.24316,2.04105 11.74805,0.93555 3.02925,-0.95549 4.80632,-2.4167 6.07617,-4.9961 0.90426,-1.83683 1.05777,-2.48581 1.04687,-4.41797 -0.0213,-3.79331 -1.56973,-6.41523 -4.89258,-8.29101 l -1.40234,-0.79297 1.14648,0.0332 c 2.33751,0.0662 3.6807,-1.32807 3.96876,-4.11914 0.37651,-3.64807 -1.31169,-5.62558 -5.72461,-6.70703 -3.88199,-0.95132 -8.18433,-0.18233 -11.00196,1.9668 -0.97005,0.73987 -1.24369,0.8288 -1.37109,0.44531 -0.47574,-1.4319 -2.6101,-2.55859 -4.84766,-2.55859 -0.81085,0 -0.89049,-0.11724 -1.06445,-1.58594 -0.3263,-2.75522 -1.44614,-3.76156 -4.54102,-4.08008 -0.25237,-0.026 -0.50295,-0.0413 -0.75195,-0.0449 z m -157.24219,0.89258 c 2.16881,0.008 1.9961,0.9839 1.9961,16.10742 v 14.92187 l -1.16993,0.21875 c -0.64269,0.12057 -1.54267,0.0866 -2,-0.0742 l -0.83007,-0.29102 -0.16016,-13.5625 -0.16016,-13.56055 -5.38867,13.40821 c -2.96313,7.37495 -5.61786,13.59054 -5.90039,13.81054 -0.66294,0.51607 -2.3522,0.5121 -3.06055,-0.006 -0.30371,-0.22208 -2.84593,-6.35887 -5.64843,-13.63867 -2.80246,-7.27981 -5.17413,-13.31475 -5.26953,-13.41015 -0.0954,-0.0954 -0.17383,5.95456 -0.17383,13.44335 v 13.61524 l -0.71875,0.19336 c -1.06297,0.28486 -2.24611,0.2252 -2.88086,-0.14453 -0.5204,-0.3031 -0.55859,-1.3605 -0.5586,-14.95899 10e-6,-17.18857 -0.22801,-16.05468 3.20118,-16.05468 2.71414,0 3.72624,0.43221 4.44531,1.90234 0.30589,0.62532 2.48951,6.06755 4.85351,12.09375 2.36404,6.02624 4.37099,10.95808 4.45899,10.95508 0.088,-0.002 2.08931,-4.71807 4.44727,-10.47852 5.4327,-13.27194 5.60924,-13.64675 6.60742,-14.10156 0.44902,-0.20459 1.72163,-0.37109 2.83008,-0.37109 0.41282,0 0.77024,-0.0187 1.08007,-0.0176 z m 93.55664,0.0293 c 0.72779,0.001 1.5914,0.0149 2.61133,0.0371 5.5111,0.12019 5.54977,0.12432 7.68164,1.17383 3.33014,1.63943 4.70508,3.9912 4.70508,8.04102 0,2.82583 -0.71019,4.78977 -2.41992,6.6914 -2.11228,2.34938 -3.92457,3.02523 -8.53906,3.1836 l -3.75977,0.1289 v 5.54297 c 0,4.61283 -0.0855,5.62842 -0.50391,6.04688 -0.47847,0.47847 -2.37171,0.64777 -3.25586,0.29101 -0.31209,-0.12592 -0.40039,-3.48896 -0.40039,-15.29687 0,-13.01436 0.0667,-15.18916 0.47657,-15.5293 0.26328,-0.21852 1.22093,-0.31407 3.40429,-0.31055 z m -54.76171,2.30079 c 0.34798,0 0.69498,0.0299 0.95898,0.0879 l 0.96094,0.21093 v 2.8418 2.84375 l 3.11914,0.0918 3.11914,0.0918 v 1.43946 1.43945 l -3.11914,0.0918 -3.11914,0.0918 0.002,6.62891 c 0.002,7.17478 0.24411,8.75544 1.46094,9.55273 0.75955,0.49773 1.03896,0.50048 4.13672,0.0488 0.54084,-0.0788 0.65588,0.11464 0.73828,1.24805 0.0807,1.10988 -0.0303,1.42297 -0.64063,1.81445 -0.92368,0.59248 -3.90707,0.8926 -5.33789,0.53711 -1.41907,-0.35254 -2.61057,-1.26652 -3.40039,-2.60742 -0.58608,-0.99501 -0.64883,-1.76536 -0.74023,-9.15039 l -0.0996,-8.06445 -1.82032,-0.0957 -1.82031,-0.0957 v -1.43945 -1.43946 l 1.83985,-0.0976 1.83984,-0.0957 v -2.83789 -2.83789 l 0.96094,-0.21093 c 0.264,-0.058 0.61294,-0.0879 0.96094,-0.0879 z m 118.66406,0.004 c 0.17608,0.008 0.35032,0.0264 0.51172,0.0566 l 1.14453,0.21485 v 2.85547 2.85351 l 3.11914,0.0918 3.12109,0.0918 v 1.43946 1.43945 l -3.12109,0.0918 -3.11914,0.0918 v 6.2129 c 0,7.07472 0.31624,9.21755 1.47461,9.97656 0.76586,0.50183 2.40562,0.47385 4.20508,-0.0703 0.67379,-0.20377 0.7207,-0.12164 0.7207,1.25391 0,1.1751 -0.14589,1.56483 -0.72656,1.94531 -1.07792,0.70627 -3.98776,0.89228 -5.62891,0.35938 -3.42576,-1.11238 -3.88477,-2.58055 -3.88477,-12.39844 v -7.30273 h -1.53711 c -1.6866,0 -2.30273,-0.39673 -2.30273,-1.47852 0,-1.47963 0.2968,-1.7207 2.11328,-1.7207 h 1.72656 v -2.72656 c 0,-2.57515 0.043,-2.74835 0.77539,-3.08204 0.32808,-0.14949 0.87995,-0.22007 1.40821,-0.19531 z m -63.62305,1.20313 v 6.24023 6.24024 h 2.25781 c 3.18637,0 4.95165,-0.52147 6.38282,-1.88672 3.13815,-2.9936 2.17575,-8.78229 -1.70313,-10.25196 -0.49545,-0.18772 -2.25937,-0.34179 -3.91992,-0.34179 z m 5.39844,3.83984 c 1.24307,0 1.64062,0.55331 1.64062,2.28125 0,1.25315 -0.14529,1.6264 -0.84375,2.17578 -0.4736,0.37254 -1.31503,0.66406 -1.91992,0.66406 h -1.07617 v -1.71679 c 0,-2.08781 0.85,-3.4043 2.19922,-3.4043 z m 47.72265,0.44336 c 0.22295,0.0113 0.44874,0.0389 0.67579,0.082 2.0368,0.38681 2.24449,0.62565 2.13867,2.45508 -0.10605,1.83341 0.0859,1.74386 -2.84375,1.32031 -1.35171,-0.19543 -1.56581,-0.12719 -2.69531,0.86328 -0.67473,0.59168 -1.63502,1.63782 -2.13282,2.32422 l -0.90429,1.24805 v 7.30078 c 0,6.8905 -0.0349,7.32017 -0.61915,7.63281 -0.78124,0.41808 -2.25009,0.40979 -2.98046,-0.0156 -0.5162,-0.30067 -0.56055,-1.18833 -0.56055,-11.35742 v -11.03321 l 0.86719,-0.32812 c 0.95658,-0.36369 2.35344,-0.13234 2.72461,0.45117 0.13107,0.20605 0.24114,0.92395 0.24414,1.5957 l 0.004,1.22071 1.55664,-1.59766 c 1.49686,-1.53676 2.96476,-2.24097 4.52539,-2.16211 z m -128.125,0.0391 c 3.65541,-0.16719 7.35985,1.17413 9.11329,3.9336 1.41277,2.22336 1.99649,4.5722 1.96289,7.90429 -0.059,5.84413 -2.42171,9.72415 -6.85547,11.25977 -2.03164,0.70361 -5.55233,0.82594 -7.5586,0.26172 -4.94551,-1.39079 -7.38234,-5.61721 -7.01562,-12.16211 0.19846,-3.54253 1.12468,-6.14984 2.85351,-8.02539 1.84277,-1.99916 4.65691,-3.04184 7.5,-3.17188 z m 102.81055,0.01 c 2.69546,0.0405 5.14624,0.81185 6.40039,2.24023 1.52951,1.74202 1.70159,2.83091 1.86719,11.85157 0.13783,7.50783 0.0981,8.39803 -0.38477,8.88085 -0.54633,0.54637 -1.6325,0.69195 -2.54492,0.3418 -0.34141,-0.13101 -0.50586,-0.59865 -0.50586,-1.4375 v -1.24414 l -1.45312,1.10938 c -0.79946,0.61024 -2.19315,1.32904 -3.09766,1.59765 -1.81738,0.53971 -2.98164,0.57131 -4.85937,0.13086 -3.04384,-0.71399 -4.65738,-2.63474 -4.89063,-5.82226 -0.35836,-4.89689 3.42567,-7.58008 10.68945,-7.58008 h 2.97266 v -1.79102 c 0,-3.61388 -1.46574,-5.0273 -5.18945,-5.0039 -1.73795,0.0109 -2.59143,0.2104 -4.28711,1.0039 -2.57143,1.20333 -2.93436,1.22326 -3.19922,0.16797 -0.33498,-1.33469 0.36201,-2.34289 2.19727,-3.17969 1.94477,-0.88674 4.18868,-1.29709 6.28515,-1.26562 z m 56.11524,0.0137 c 1.11174,0.0251 2.25729,0.21528 3.37695,0.58984 1.6912,0.56576 2.30772,1.28763 2.29492,2.68555 -0.0125,1.37709 -0.49052,1.49225 -2.48828,0.5957 -2.12791,-0.95494 -4.00803,-1.0905 -5.65039,-0.40429 -1.25389,0.5239 -1.77539,1.33326 -1.77539,2.75195 0,1.4726 1.29299,2.56434 4.71094,3.97852 4.91459,2.0334 6.39522,3.82973 6.0996,7.39453 -0.19605,2.3641 -1.3422,4.00635 -3.54882,5.08593 -2.91674,1.42704 -7.16374,1.37571 -10.09766,-0.12109 -1.02246,-0.52164 -1.33901,-0.88978 -1.5,-1.74805 -0.11428,-0.60912 -0.0455,-1.3828 0.15625,-1.75976 0.35927,-0.67123 0.36576,-0.67026 2.31641,0.31445 4.43741,2.23997 8.90234,1.16886 8.90234,-2.13476 0,-1.58832 -1.07978,-2.5555 -4.47852,-4.00977 -1.672,-0.71542 -3.52409,-1.66723 -4.11523,-2.11523 -2.11638,-1.60384 -2.83834,-4.76186 -1.67383,-7.32618 1.10592,-2.43528 4.13548,-3.85279 7.47071,-3.77734 z m -116.40235,0.0293 c 4.91901,-0.024 8.22867,2.0156 9.7793,6.02539 0.96896,2.5057 1.07536,7.6842 0.2168,10.45898 -1.06691,3.44807 -3.63861,5.90178 -7.14258,6.81446 -2.96714,0.77282 -6.48889,0.42983 -8.9336,-0.86915 -4.72067,-2.50822 -6.36016,-10.90601 -3.33984,-17.11328 1.72218,-3.53939 4.83132,-5.2941 9.41992,-5.3164 z m -42.14258,3.30468 c -4.63424,0 -6.86095,3.11908 -6.59375,9.23438 0.17849,4.08505 1.36714,6.4069 3.77539,7.36719 1.18074,0.4708 4.34991,0.42341 5.53125,-0.082 2.68884,-1.1505 3.85055,-3.57991 3.86915,-8.08789 0.0122,-2.98379 -0.0641,-3.39962 -0.9336,-5.09571 -1.21207,-2.36439 -2.85622,-3.33594 -5.64844,-3.33594 z m 42.2168,0.0156 c -1.93591,-0.0548 -3.13169,0.34 -4.29492,1.36133 -1.51043,1.32617 -2.33552,3.23591 -2.55469,5.91406 -0.35235,4.30521 0.91556,7.73107 3.33399,9.00781 1.66202,0.87753 4.79046,0.88481 6.49414,0.0156 2.49075,-1.27069 3.68429,-4.29418 3.44336,-8.72071 -0.25818,-4.74313 -2.09869,-7.24155 -5.54493,-7.52734 -0.30883,-0.0256 -0.60039,-0.043 -0.87695,-0.0508 z m -28.33984,3.50586 c 0.1455,0 0.26562,0.43098 0.26562,0.95898 0,0.528 -0.0551,0.96094 -0.12304,0.96094 -0.068,0 -0.18813,-0.43294 -0.26563,-0.96094 -0.0775,-0.528 -0.0225,-0.95898 0.12305,-0.95898 z m 14.22265,0.0195 c 0.4275,-0.0336 0.38313,0.17049 0.20313,0.98047 -0.132,0.59402 -0.24024,2.7587 -0.24024,4.8125 0,3.11782 -0.0797,3.73138 -0.48046,3.70898 -0.26401,-0.0148 -0.94754,0.0799 -1.51954,0.21094 l -1.04101,0.23828 v -4.00781 c 0,-3.70026 0.0559,-4.07072 0.7207,-4.82617 0.396,-0.45002 1.18777,-0.90776 1.75977,-1.01758 0.25999,-0.0499 0.45515,-0.0884 0.59765,-0.0996 z m 117.84375,0.19531 c 1.04314,-0.0539 1.08373,-0.008 1.52149,1.70508 0.86471,3.38346 2.69692,5.18453 7.31836,7.19727 2.256,0.98253 2.42646,1.11195 1.43945,1.09375 -0.616,-0.0113 -1.98502,-0.44812 -3.04102,-0.97071 -2.09959,-1.03905 -3.4054,-1.06299 -4.89062,-0.0898 -0.52707,0.34535 -1.55502,0.55518 -2.84766,0.58398 l -2.02148,0.0469 v -3.91406 c 0,-3.60388 0.0571,-3.97798 0.72461,-4.75391 0.48346,-0.56208 1.08177,-0.86154 1.79687,-0.89844 z m -102.80273,0.10352 c 1.54633,0 2.15625,1.31294 2.15625,4.64062 0,2.73811 -0.54732,4.33571 -1.69727,4.95118 -0.78096,0.41811 -2.56659,0.40776 -3.29687,-0.0176 -1.51203,-0.88067 -2.0525,-4.83137 -0.95899,-7.00782 0.70809,-1.40938 2.41886,-2.5664 3.79688,-2.5664 z m -42.24805,0.002 c 1.6784,-0.004 2.19295,0.91845 2.32031,4.1582 0.1255,3.19328 -0.385,4.77902 -1.74023,5.39649 -2.33664,1.06467 -4.37062,-0.25272 -4.75977,-3.08203 -0.46819,-3.40423 1.50923,-6.46666 4.17969,-6.47266 z m 102.67969,5.75977 c -4.72774,0 -6.55956,1.1551 -6.53906,4.12304 0.0108,1.5673 0.30763,2.13278 1.58007,3.00977 0.89243,0.61507 3.03655,0.71666 4.37696,0.20703 0.48983,-0.18624 1.50809,-0.8434 2.26172,-1.46094 l 1.37109,-1.12304 v -2.37891 -2.37695 z"
       id="path1403" /></g></svg>
