<?xml version="1.0" encoding="UTF-8" standalone="no"?>
<svg
   sodipodi:docname="AD Motos.svg"
   inkscape:version="1.2.1 (9c6d41e410, 2022-07-14)"
   id="svg974"
   version="1.1"
   viewBox="0 0 264.58333 78.957489"
   height="298.422"
   width="1000"
   inkscape:export-filename="exportadas\admotos.png"
   inkscape:export-xdpi="96"
   inkscape:export-ydpi="96"
   xml:space="preserve"
   xmlns:inkscape="http://www.inkscape.org/namespaces/inkscape"
   xmlns:sodipodi="http://sodipodi.sourceforge.net/DTD/sodipodi-0.dtd"
   xmlns="http://www.w3.org/2000/svg"
   xmlns:svg="http://www.w3.org/2000/svg"
   xmlns:rdf="http://www.w3.org/1999/02/22-rdf-syntax-ns#"
   xmlns:cc="http://creativecommons.org/ns#"
   xmlns:dc="http://purl.org/dc/elements/1.1/"><defs
     id="defs968" /><sodipodi:namedview
     inkscape:guide-bbox="true"
     showguides="true"
     inkscape:window-maximized="1"
     inkscape:window-y="32"
     inkscape:window-x="0"
     inkscape:window-height="831"
     inkscape:window-width="1600"
     units="px"
     showgrid="false"
     inkscape:document-rotation="0"
     inkscape:current-layer="layer1"
     inkscape:document-units="mm"
     inkscape:cy="268.75"
     inkscape:cx="1715.625"
     inkscape:zoom="0.32"
     inkscape:pageshadow="2"
     inkscape:pageopacity="0.0"
     borderopacity="1.0"
     bordercolor="#666666"
     pagecolor="#ffffff"
     id="base"
     inkscape:pagecheckerboard="1"
     inkscape:showpageshadow="0"
     inkscape:deskcolor="#d1d1d1" /><metadata
     id="metadata971"><rdf:RDF><cc:Work
         rdf:about=""><dc:format>image/svg+xml</dc:format><dc:type
           rdf:resource="http://purl.org/dc/dcmitype/StillImage" /></cc:Work></rdf:RDF></metadata><g
     id="layer1"
     inkscape:groupmode="layer"
     inkscape:label="Layer 1"><g
       id="g17597"
       transform="matrix(0.2664823,0,0,0.2664823,-8.7218418,-12.168184)"><path
         id="path857"
         style="font-style:normal;font-variant:normal;font-weight:normal;font-stretch:normal;font-size:10.1258px;line-height:1.25;font-family:Impact;-inkscape-font-specification:Impact;letter-spacing:0px;word-spacing:0px;fill:#002c8f;fill-opacity:1;stroke:none;stroke-width:4.11056"
         d="m 729.61438,103.81899 c -7.435,0 -13.94697,1.18772 -19.53679,3.56309 -5.58981,2.37537 -10.04013,5.77983 -13.35061,10.21384 -3.25621,4.43402 -5.20991,9.34311 -5.86114,14.72727 -0.59701,5.33138 -0.89555,14.43692 -0.89555,27.31668 v 21.93251 c 0,13.19649 0.32545,22.43444 0.97668,27.71304 0.65124,5.27859 2.68656,10.1614 6.10557,14.6482 3.41901,4.48679 7.92357,7.86498 13.51339,10.13478 5.64409,2.217 11.99334,3.32538 19.04845,3.32538 7.43499,0 13.94749,-1.18773 19.53731,-3.56309 5.58981,-2.37537 10.01275,-5.77983 13.26896,-10.21385 3.31043,-4.43401 5.26413,-9.31682 5.86114,-14.6482 0.65123,-5.38417 0.9772,-14.5165 0.9772,-27.39626 v -21.93251 c 0,-13.19648 -0.32546,-22.43393 -0.97669,-27.71252 -0.65124,-5.2786 -2.68656,-10.1614 -6.10557,-14.6482 -3.41901,-4.48681 -7.95043,-7.83871 -13.59452,-10.05572 -5.5898,-2.26979 -11.91272,-3.40444 -18.96783,-3.40444 z m 168.02075,0 c -7.435,0 -13.9475,1.18772 -19.53731,3.56309 -5.58982,2.37537 -10.04014,5.77983 -13.3506,10.21384 -3.25621,4.43402 -5.20991,9.34311 -5.86114,14.72727 -0.59701,5.33138 -0.89556,14.43692 -0.89556,27.31668 v 21.93251 c 0,13.19649 0.32546,22.43444 0.97669,27.71304 0.65124,5.27859 2.68656,10.1614 6.10557,14.6482 3.41901,4.48679 7.92358,7.86498 13.51339,10.13478 5.64408,2.217 11.99334,3.32538 19.04845,3.32538 7.43499,0 13.94749,-1.18773 19.5373,-3.56309 5.58982,-2.37537 10.01276,-5.77983 13.26896,-10.21385 3.31044,-4.43401 5.26414,-9.31682 5.86114,-14.6482 0.65123,-5.38417 0.9772,-14.5165 0.9772,-27.39626 v -21.93251 c 0,-13.19648 -0.32545,-22.43393 -0.97668,-27.71252 -0.65124,-5.2786 -2.68656,-10.1614 -6.10557,-14.6482 -3.41902,-4.48681 -7.95045,-7.83871 -13.59452,-10.05572 -5.58982,-2.26979 -11.91221,-3.40444 -18.96732,-3.40444 z m 86.8593,0 c -8.1405,0 -15.08744,1.29335 -20.84007,3.87986 -5.75262,2.53373 -9.93123,6.0701 -12.53619,10.60969 -2.55069,4.53958 -3.82612,11.71848 -3.82612,21.53667 0,6.80938 0.89524,12.40483 2.68614,16.78606 1.84518,4.38123 4.1517,7.81249 6.91947,10.29342 2.76777,2.48094 8.41191,6.46612 16.9323,11.95586 8.52041,5.43696 13.86596,9.31652 16.03675,11.63909 2.11653,2.32259 3.175,7.25846 3.175,14.80685 0,3.43107 -0.56978,6.01727 -1.70945,7.75921 -1.0854,1.74194 -2.7679,2.61328 -5.04724,2.61328 -2.27937,0 -3.88024,-0.68636 -4.80281,-2.05879 -0.86835,-1.37243 -1.30225,-4.46051 -1.30225,-9.26403 v -15.59802 h -31.82958 v 8.39277 c 0,9.60704 1.00372,17.02349 3.0117,22.24929 2.008,5.22581 6.24134,9.52789 12.69949,12.90619 6.51239,3.37829 14.35456,5.06739 23.52621,5.06739 8.3576,0 15.68372,-1.45155 21.97902,-4.35477 6.2953,-2.95601 10.5287,-6.59854 12.6995,-10.92699 2.225,-4.32844 3.3372,-11.05854 3.3372,-20.19049 0,-12.56306 -1.9805,-21.66858 -5.9422,-27.31668 -3.9618,-5.64809 -13.5675,-12.87955 -28.81739,-21.6948 -5.31846,-3.06159 -8.54759,-5.67458 -9.68726,-7.8388 -1.19395,-2.16421 -1.79111,-5.38421 -1.79111,-9.65988 0,-3.32551 0.51555,-5.8066 1.54668,-7.44295 1.0854,-1.63638 2.65942,-2.45463 4.72167,-2.45463 1.8995,0 3.25603,0.60699 4.07004,1.82107 0.81401,1.21408 1.22111,4.03834 1.22111,8.47235 v 9.50123 h 31.82956 v -5.06739 c 0,-10.18768 -1.0311,-17.39286 -3.0933,-21.61573 -2.008,-4.27567 -6.1598,-7.81256 -12.4551,-10.61021 -6.2411,-2.79765 -13.81147,-4.19612 -22.71177,-4.19612 z m -609.56228,2.69182 -17.42064,128.19114 h 35.49293 l 2.03501,-23.04148 h 12.29228 l 1.70945,23.04148 H 444.1269 L 424.50794,106.51081 Z m 75.05589,0 v 128.19114 h 43.22578 c 8.19478,0 14.32759,-0.4225 18.39785,-1.2671 4.07025,-0.89736 7.48896,-2.42828 10.25673,-4.59249 2.76783,-2.21701 4.69466,-5.252 5.78001,-9.10538 1.13968,-3.90617 1.70946,-11.61324 1.70946,-23.12056 v -44.89441 c 0,-12.14076 -0.37967,-20.26984 -1.13947,-24.38715 -0.75978,-4.17009 -2.65924,-7.94401 -5.69836,-11.3223 -3.03912,-3.3783 -7.48943,-5.80682 -13.3506,-7.28483 -5.8069,-1.47801 -16.98668,-2.21692 -33.53904,-2.21692 z m 121.45615,0 v 128.19114 h 29.95734 v -84.56331 l 12.61784,84.56331 h 21.24676 l 11.9662,-86.54303 v 86.54303 h 29.95734 V 106.51081 h -44.69133 l -7.81502,59.8594 -4.72168,-32.62178 c -1.46528,-10.45161 -2.8492,-19.53087 -4.15168,-27.23762 z m 204.8154,0 v 25.65425 h 20.27009 v 102.53689 h 34.27129 V 132.16506 h 20.35173 v -25.65425 z m -46.48191,19.00298 c 2.11654,0 3.49993,0.84453 4.15117,2.53369 0.70545,1.63637 1.05833,5.43709 1.05833,11.40189 l 5.2e-4,58.90907 c 0,7.54838 -0.32597,12.32556 -0.97721,14.33142 -0.65124,2.00586 -2.14362,3.00912 -4.47724,3.00912 -2.27934,0 -3.74437,-0.87134 -4.3956,-2.61328 -0.59701,-1.74194 -0.89555,-6.33413 -0.89555,-13.77694 v -59.85939 c 0,-6.59823 0.46133,-10.55715 1.38389,-11.8768 0.97686,-1.37244 2.36078,-2.05878 4.15169,-2.05878 z m 168.01972,0 c 2.11654,0 3.50045,0.84453 4.15168,2.53369 0.70557,1.63637 1.05833,5.43709 1.05833,11.40189 v 58.90907 c 0,7.54838 -0.32545,12.32556 -0.97668,14.33142 -0.65125,2.00586 -2.14364,3.00912 -4.47725,3.00912 -2.27935,0 -3.74488,-0.87134 -4.39611,-2.61328 -0.59701,-1.74194 -0.89555,-6.33413 -0.89555,-13.77694 v -59.85939 c 0,-6.59823 0.46133,-10.55715 1.38389,-11.8768 0.97687,-1.37244 2.36078,-2.05878 4.15169,-2.05878 z m -413.53807,2.92953 c 3.74463,0 6.29549,0.39629 7.65225,1.18804 1.35675,0.739 2.22511,1.92672 2.60501,3.56309 0.37989,1.63636 0.56947,5.35773 0.56947,11.16418 v 49.80368 c 0,8.55132 -0.56979,13.80306 -1.70946,15.75614 -1.13967,1.90029 -4.17869,2.85047 -9.11727,2.85047 z m -83.11482,6.73034 c 1.73664,21.32551 3.47337,39.24649 5.21001,53.76261 h -11.72228 c 0.86833,-11.34897 3.03898,-29.26994 6.51227,-53.76261 z" /><path
         id="path1625"
         style="font-size:56.0026px;line-height:1.15;font-family:Nurom;-inkscape-font-specification:Nurom;text-align:end;letter-spacing:0px;word-spacing:0px;text-anchor:end;fill:#e92525;fill-opacity:1;stroke-width:1.40007"
         d="m 914.52618,253.7019 -4.9279,9.1281 h 6.6084 l 6.9443,-9.1281 z m -384.28868,1.5678 v 39.3702 h 7.84034 v -12.993 h 8.90437 c 2.91214,0 5.45116,-0.5409 7.61659,-1.6236 2.20276,-1.1201 3.88262,-2.6886 5.03999,-4.7047 1.19473,-2.0161 1.79216,-4.3308 1.79216,-6.9443 0,-2.5761 -0.55997,-4.8533 -1.68,-6.8321 -1.12006,-1.9788 -2.74397,-3.5098 -4.87207,-4.5925 -2.09076,-1.12 -4.57385,-1.68 -7.44863,-1.68 z m 424.33068,0 v 7.1123 h 7.4481 v -7.1123 z m -416.49034,7.1686 h 9.35241 c 1.97874,0 3.47229,0.5414 4.48035,1.6242 1.00804,1.0454 1.51204,2.4824 1.51204,4.3118 0,1.8668 -0.55993,3.3603 -1.67999,4.4804 -1.08273,1.0827 -2.66968,1.6242 -4.76044,1.6242 h -8.90437 z m 130.87784,3.2479 c -3.8082,0 -6.7763,0.8026 -8.9044,2.4081 -2.09076,1.6054 -3.13626,3.7707 -3.13626,6.4962 0,2.2401 0.69086,4.0323 2.07224,5.3764 1.41872,1.3068 3.34132,2.1279 5.76812,2.464 l 6.2725,0.9524 c 2.3148,0.336 3.4721,1.3065 3.4721,2.9119 0,1.1574 -0.4855,2.072 -1.4562,2.744 -0.9707,0.6347 -2.2215,0.9524 -3.7522,0.9524 -1.7174,0 -3.1176,-0.4106 -4.2003,-1.2319 -1.0454,-0.8587 -1.6428,-2.0726 -1.7921,-3.6406 h -7.11227 c 0.0747,3.3601 1.32543,5.9366 3.75227,7.7287 2.4641,1.7547 5.619,2.6319 9.4645,2.6319 3.8455,0 6.8885,-0.8402 9.1287,-2.5203 2.2774,-1.7174 3.4157,-4.0131 3.4157,-6.888 0,-4.6295 -3.1549,-7.4482 -9.4645,-8.4563 l -5.1521,-0.7844 c -1.8295,-0.2987 -2.744,-1.0824 -2.744,-2.3518 0,-0.9707 0.4105,-1.755 1.2319,-2.3523 0.8587,-0.6347 1.9976,-0.9519 3.4163,-0.9519 1.5308,0 2.7256,0.3731 3.5843,1.1198 0.8587,0.7094 1.2693,1.6989 1.232,2.9683 h 7.168 c -0.037,-3.1361 -1.1572,-5.5068 -3.36,-7.1122 -2.1654,-1.6428 -5.1335,-2.4644 -8.9043,-2.4644 z m 183.5758,0 c -3.8081,0 -6.7762,0.8026 -8.9043,2.4081 -2.0908,1.6054 -3.1363,3.7707 -3.1363,6.4962 0,2.2401 0.6909,4.0323 2.0722,5.3764 1.4188,1.3068 3.3419,2.1279 5.7687,2.464 l 6.272,0.9524 c 2.3147,0.336 3.4721,1.3065 3.4721,2.9119 0,1.1574 -0.485,2.072 -1.4557,2.744 -0.9707,0.6347 -2.2215,0.9524 -3.7523,0.9524 -1.7174,0 -3.1175,-0.4106 -4.2002,-1.2319 -1.0454,-0.8587 -1.6428,-2.0726 -1.7921,-3.6406 h -7.1123 c 0.075,3.3601 1.3255,5.9366 3.7523,7.7287 2.4641,1.7547 5.6185,2.6319 9.464,2.6319 3.8455,0 6.8885,-0.8402 9.1286,-2.5203 2.2775,-1.7174 3.4164,-4.0131 3.4164,-6.888 0,-4.6295 -3.155,-7.4482 -9.4646,-8.4563 l -5.1521,-0.7844 c -1.8294,-0.2987 -2.7446,-1.0824 -2.7446,-2.3518 0,-0.9707 0.4111,-1.755 1.2325,-2.3523 0.8587,-0.6347 1.9971,-0.9519 3.4158,-0.9519 1.5308,0 2.7256,0.3731 3.5843,1.1198 0.8587,0.7094 1.2693,1.6989 1.232,2.9683 h 7.1685 c -0.037,-3.1361 -1.1572,-5.5068 -3.36,-7.1122 -2.1654,-1.6428 -5.134,-2.4644 -8.9049,-2.4644 z m 29.4013,0 c -3.8081,0 -6.7762,0.8026 -8.9043,2.4081 -2.0908,1.6054 -3.1363,3.7707 -3.1363,6.4962 0,2.2401 0.6909,4.0323 2.0723,5.3764 1.4187,1.3068 3.3413,2.1279 5.7681,2.464 l 6.2725,0.9524 c 2.3148,0.336 3.4721,1.3065 3.4721,2.9119 0,1.1574 -0.4855,2.072 -1.4562,2.744 -0.9707,0.6347 -2.221,0.9524 -3.7517,0.9524 -1.7174,0 -3.1176,-0.4106 -4.2003,-1.2319 -1.0454,-0.8587 -1.6428,-2.0726 -1.7921,-3.6406 h -7.1123 c 0.075,3.3601 1.325,5.9366 3.7518,7.7287 2.464,1.7547 5.619,2.6319 9.4645,2.6319 3.8455,0 6.8885,-0.8402 9.1286,-2.5203 2.2775,-1.7174 3.4163,-4.0131 3.4163,-6.888 0,-4.6295 -3.1549,-7.4482 -9.4645,-8.4563 l -5.1521,-0.7844 c -1.8295,-0.2987 -2.7446,-1.0824 -2.7446,-2.3518 0,-0.9707 0.4106,-1.755 1.232,-2.3523 0.8587,-0.6347 1.9976,-0.9519 3.4163,-0.9519 1.5308,0 2.7256,0.3731 3.5843,1.1198 0.8587,0.7094 1.2693,1.6989 1.232,2.9683 h 7.1685 c -0.037,-3.1361 -1.1577,-5.5068 -3.3605,-7.1122 -2.1654,-1.6428 -5.1335,-2.4644 -8.9044,-2.4644 z m 130.59822,0 c -3.8082,0 -6.7767,0.8026 -8.9049,2.4081 -2.0907,1.6054 -3.1357,3.7707 -3.1357,6.4962 0,2.2401 0.6909,4.0323 2.0722,5.3764 1.4188,1.3068 3.3414,2.1279 5.7682,2.464 l 6.2719,0.9524 c 2.3148,0.336 3.4722,1.3065 3.4722,2.9119 0,1.1574 -0.485,2.072 -1.4557,2.744 -0.9707,0.6347 -2.2215,0.9524 -3.7523,0.9524 -1.7174,0 -3.1175,-0.4106 -4.2002,-1.2319 -1.0454,-0.8587 -1.6428,-2.0726 -1.7922,-3.6406 h -7.11222 c 0.075,3.3601 1.32552,5.9366 3.75222,7.7287 2.4642,1.7547 5.619,2.6319 9.4645,2.6319 3.8455,0 6.8881,-0.8402 9.1282,-2.5203 2.2775,-1.7174 3.4163,-4.0131 3.4163,-6.888 0,-4.6295 -3.1549,-7.4482 -9.4645,-8.4563 l -5.1522,-0.7844 c -1.8294,-0.2987 -2.744,-1.0824 -2.744,-2.3518 0,-0.9707 0.4106,-1.755 1.232,-2.3523 0.8587,-0.6347 1.9976,-0.9519 3.4163,-0.9519 1.5307,0 2.7251,0.3731 3.5838,1.1198 0.8587,0.7094 1.2693,1.6989 1.232,2.9683 h 7.1685 c -0.037,-3.1361 -1.1573,-5.5068 -3.36,-7.1122 -2.1655,-1.6428 -5.1336,-2.4644 -8.9044,-2.4644 z m -434.13158,0.056 c -2.80014,0 -5.26423,0.6343 -7.39233,1.9037 -2.1281,1.2694 -3.78947,3.0432 -4.98419,5.3206 -1.15737,2.2401 -1.7358,4.8346 -1.7358,7.784 0,2.8375 0.55993,5.358 1.67999,7.5608 1.12007,2.2028 2.74397,3.9386 4.87207,5.208 2.1281,1.232 4.62965,1.8479 7.50443,1.8479 2.35212,0 4.49903,-0.4106 6.44043,-1.2319 1.97877,-0.8587 3.56521,-2.0346 4.75994,-3.528 1.19472,-1.5307 1.82959,-3.2671 1.90426,-5.2085 h -7.22435 c -0.26135,1.0454 -0.89625,1.9231 -1.90428,2.6324 -0.97071,0.672 -2.18403,1.0077 -3.64009,1.0077 -1.9041,0 -3.41611,-0.5409 -4.53617,-1.6237 -1.0827,-1.0827 -1.792,-2.5578 -2.12802,-4.4245 h 19.99308 v -3.3042 c 0,-2.7628 -0.55994,-5.1894 -1.68,-7.2802 -1.0827,-2.1281 -2.65117,-3.771 -4.70461,-4.9284 -2.05343,-1.1573 -4.46159,-1.7357 -7.22436,-1.7357 z m 31.19344,0 c -2.68814,0 -5.07727,0.6158 -7.16803,1.8479 -2.09077,1.232 -3.7152,2.9684 -4.87257,5.2085 -1.15739,2.2401 -1.73583,4.8345 -1.73583,7.784 0,3.9575 0.98955,7.2433 2.96831,9.8568 1.97874,2.5761 4.64812,4.1441 8.00828,4.7041 l -1.0082,5.04 h 1.0082 c 2.05343,0 3.07993,0.5415 3.07993,1.6242 0,0.4853 -0.22378,0.8774 -0.6718,1.1761 -0.41069,0.2987 -1.00812,0.4481 -1.79213,0.4481 -0.74671,0 -1.49347,-0.1119 -2.24017,-0.3359 l -0.9519,3.9202 c 1.49342,0.5226 2.93048,0.7839 4.31189,0.7839 2.16543,0 3.86427,-0.579 5.09633,-1.7364 1.23206,-1.1573 1.84795,-2.52 1.84795,-4.0881 0,-1.1947 -0.39161,-2.2586 -1.17565,-3.192 -0.78404,-0.9334 -1.90444,-1.5493 -3.3605,-1.848 l 0.33589,-1.68 c 3.2108,-0.336 5.84325,-1.5308 7.89668,-3.5842 2.05343,-2.0535 3.2108,-4.7419 3.47212,-8.0647 h -7.56025 c -0.26136,1.6054 -0.89623,2.8562 -1.90429,3.7522 -1.00803,0.8587 -2.23983,1.2883 -3.69588,1.2883 -1.82941,0 -3.28549,-0.7283 -4.36822,-2.1844 -1.0827,-1.456 -1.62417,-3.4346 -1.62417,-5.936 0,-2.4641 0.54147,-4.4242 1.62417,-5.8803 1.08273,-1.4561 2.55728,-2.1844 4.42402,-2.1844 1.53074,0 2.78151,0.4481 3.75224,1.3442 1.00803,0.896 1.60546,2.1283 1.79213,3.6964 h 7.61608 c -0.37335,-3.6589 -1.7545,-6.5335 -4.14393,-8.6243 -2.38945,-2.0908 -5.37654,-3.1362 -8.9607,-3.1362 z m 29.56926,0 c -2.38946,0 -4.51737,0.448 -6.38411,1.344 -1.86677,0.8587 -3.32282,2.0721 -4.36822,3.6401 -1.04537,1.5308 -1.56787,3.2666 -1.56787,5.208 h 7.44813 c 0,-1.1574 0.41061,-2.1095 1.23198,-2.8562 0.85871,-0.784 2.03507,-1.1756 3.52846,-1.1756 1.49341,0 2.63178,0.3916 3.41582,1.1756 0.82137,0.7841 1.23195,1.9789 1.23195,3.5843 v 0.3922 c -3.9575,0.4107 -7.24278,0.9707 -9.85623,1.68 -2.57614,0.6721 -4.59216,1.6801 -6.04821,3.0241 -1.45609,1.3441 -2.18438,3.1173 -2.18438,5.3201 0,2.5388 0.89615,4.5548 2.68822,6.0483 1.79208,1.4934 4.16274,2.2401 7.11221,2.2401 2.05343,0 3.88316,-0.448 5.48857,-1.3441 1.60542,-0.896 2.81872,-1.941 3.64009,-3.1357 l 0.72813,3.7522 h 5.88026 v -17.0248 c 0,-3.9949 -1.06397,-6.9635 -3.19207,-8.9049 -2.12809,-1.9787 -5.05923,-2.9677 -8.79273,-2.9677 z m 75.77156,0 c -2.8001,0 -5.2642,0.6343 -7.3923,1.9037 -2.1281,1.2694 -3.7894,3.0432 -4.9842,5.3206 -1.1574,2.2401 -1.7363,4.8346 -1.7363,7.784 0,2.8375 0.56,5.358 1.68,7.5608 1.1201,2.2028 2.7445,3.9386 4.8726,5.208 2.1281,1.232 4.6296,1.8479 7.5044,1.8479 2.3521,0 4.4985,-0.4106 6.4399,-1.2319 1.9788,-0.8587 3.5658,-2.0346 4.7605,-3.528 1.1947,-1.5307 1.8296,-3.2671 1.9043,-5.2085 h -7.2244 c -0.2614,1.0454 -0.8962,1.9231 -1.9043,2.6324 -0.9707,0.672 -2.184,1.0077 -3.6401,1.0077 -1.9041,0 -3.4161,-0.5409 -4.5361,-1.6237 -1.0827,-1.0827 -1.7921,-2.5578 -2.1281,-4.4245 h 19.9926 v -3.3042 c 0,-2.7628 -0.5599,-5.1894 -1.68,-7.2802 -1.0827,-2.1281 -2.6507,-3.771 -4.7041,-4.9284 -2.0534,-1.1573 -4.4616,-1.7357 -7.2244,-1.7357 z m 45.698,0 c -2.3894,0 -4.5173,0.448 -6.3841,1.344 -1.8667,0.8587 -3.3228,2.0721 -4.3682,3.6401 -1.0454,1.5308 -1.5684,3.2666 -1.5684,5.208 h 7.4487 c 0,-1.1574 0.4106,-2.1095 1.2319,-2.8562 0.8587,-0.784 2.0346,-1.1756 3.528,-1.1756 1.4934,0 2.6323,0.3916 3.4163,1.1756 0.8214,0.7841 1.232,1.9789 1.232,3.5843 v 0.3922 c -3.9575,0.4107 -7.2428,0.9707 -9.8563,1.68 -2.5761,0.6721 -4.5926,1.6801 -6.0487,3.0241 -1.4561,1.3441 -2.1838,3.1173 -2.1838,5.3201 0,2.5388 0.8961,4.5548 2.6882,6.0483 1.7921,1.4934 4.1627,2.2401 7.1122,2.2401 2.0534,0 3.8826,-0.448 5.488,-1.3441 1.6054,-0.896 2.8193,-1.941 3.6407,-3.1357 l 0.7276,3.7522 h 5.8802 v -17.0248 c 0,-3.9949 -1.064,-6.9635 -3.1921,-8.9049 -2.128,-1.9787 -5.0587,-2.9677 -8.7922,-2.9677 z m 30.5775,0 c -2.6881,0 -5.0778,0.6158 -7.1686,1.8479 -2.0907,1.232 -3.7146,2.9684 -4.872,5.2085 -1.1574,2.2401 -1.7363,4.8345 -1.7363,7.784 0,2.9868 0.5599,5.6002 1.6799,7.8403 1.1574,2.2028 2.7629,3.9201 4.8163,5.1522 2.0907,1.1947 4.4989,1.7921 7.2244,1.7921 2.3894,0 4.5363,-0.4665 6.4404,-1.3999 1.9041,-0.9333 3.4351,-2.2775 4.5925,-4.0323 1.1947,-1.7921 1.885,-3.9015 2.0717,-6.3283 h -7.5603 c -0.2613,1.6054 -0.8957,2.8562 -1.9037,3.7522 -1.0081,0.8587 -2.2404,1.2883 -3.6964,1.2883 -1.8295,0 -3.2855,-0.7283 -4.3683,-2.1844 -1.0827,-1.456 -1.6242,-3.4346 -1.6242,-5.936 0,-2.4641 0.5415,-4.4242 1.6242,-5.8803 1.0828,-1.4561 2.5573,-2.1844 4.4241,-2.1844 1.5307,0 2.7815,0.4481 3.7522,1.3442 1.008,0.896 1.6054,2.1283 1.7921,3.6964 h 7.6166 c -0.3733,-3.6589 -1.755,-6.5335 -4.1444,-8.6243 -2.3895,-2.0908 -5.376,-3.1362 -8.9602,-3.1362 z m 30.9133,0 c -2.8001,0 -5.2642,0.6343 -7.3923,1.9037 -2.1281,1.2694 -3.7894,3.0432 -4.9842,5.3206 -1.1573,2.2401 -1.7363,4.8346 -1.7363,7.784 0,2.8375 0.56,5.358 1.68,7.5608 1.1201,2.2028 2.7445,3.9386 4.8726,5.208 2.1281,1.232 4.6291,1.8479 7.5039,1.8479 2.3521,0 4.499,-0.4106 6.4404,-1.2319 1.9788,-0.8587 3.5658,-2.0346 4.7605,-3.528 1.1947,-1.5307 1.8291,-3.2671 1.9037,-5.2085 h -7.2243 c -0.2614,1.0454 -0.8957,1.9231 -1.9038,2.6324 -0.9707,0.672 -2.184,1.0077 -3.6401,1.0077 -1.9041,0 -3.4161,-0.5409 -4.5361,-1.6237 -1.0827,-1.0827 -1.7926,-2.5578 -2.1286,-4.4245 h 19.9931 v -3.3042 c 0,-2.7628 -0.5599,-5.1894 -1.68,-7.2802 -1.0827,-2.1281 -2.6507,-3.771 -4.7041,-4.9284 -2.0534,-1.1573 -4.4615,-1.7357 -7.2244,-1.7357 z m 90.78,0 c -2.7254,0 -5.1526,0.6343 -7.2807,1.9037 -2.1281,1.2321 -3.8079,2.9868 -5.04,5.2643 -1.1947,2.2401 -1.7921,4.7976 -1.7921,7.6724 0,2.9121 0.5974,5.4886 1.7921,7.7287 1.1947,2.2402 2.8561,3.9759 4.9842,5.208 2.1655,1.232 4.6111,1.8479 7.3365,1.8479 2.7255,0 5.1521,-0.6159 7.2802,-1.8479 2.1654,-1.2694 3.8453,-3.0242 5.04,-5.2643 1.2321,-2.2401 1.8485,-4.7976 1.8485,-7.6724 0,-2.9122 -0.6164,-5.4881 -1.8485,-7.7282 -1.1947,-2.2775 -2.8746,-4.0323 -5.04,-5.2643 -2.1281,-1.2321 -4.5547,-1.8479 -7.2802,-1.8479 z m 36.0097,0 c -4.1815,0 -7.3364,1.5679 -9.4645,4.7041 l -0.616,-3.976 h -6.2167 v 28.1693 h 7.5045 v -14.6167 c 0,-1.4187 0.3546,-2.6695 1.064,-3.7522 0.7094,-1.0827 1.624,-1.9044 2.744,-2.4644 1.1574,-0.5974 2.3522,-0.8961 3.5843,-0.8961 1.1574,0 2.091,0.1493 2.8003,0.448 l 0.3359,-7.5044 c -0.5227,-0.075 -1.1011,-0.1116 -1.7358,-0.1116 z m 32.6492,0 c -2.7255,0 -5.1521,0.6343 -7.2802,1.9037 -2.1281,1.2321 -3.8084,2.9868 -5.0405,5.2643 -1.1947,2.2401 -1.7921,4.7976 -1.7921,7.6724 0,2.9121 0.5974,5.4886 1.7921,7.7287 1.1947,2.2402 2.8561,3.9759 4.9842,5.208 2.1654,1.232 4.611,1.8479 7.3365,1.8479 2.7255,0 5.1521,-0.6159 7.2802,-1.8479 2.1654,-1.2694 3.8458,-3.0242 5.0405,-5.2643 1.232,-2.2401 1.8479,-4.7976 1.8479,-7.6724 0,-2.9122 -0.6159,-5.4881 -1.8479,-7.7282 -1.1947,-2.2775 -2.8751,-4.0323 -5.0405,-5.2643 -2.1281,-1.2321 -4.5547,-1.8479 -7.2802,-1.8479 z m -26.9932,0.7281 v 28.1693 h 7.4481 v -28.1693 z m -376.0003,5.6001 c 1.71741,0 3.0426,0.4666 3.97597,1.3999 0.97073,0.9334 1.56813,2.2401 1.79215,3.9202 h -12.15276 c 0.41069,-1.6801 1.15747,-2.9868 2.24018,-3.9202 1.12006,-0.9333 2.50171,-1.3999 4.14446,-1.3999 z m 136.5338,0 c 1.7174,0 3.0426,0.4666 3.976,1.3999 0.9707,0.9334 1.5681,2.2401 1.7921,3.9202 h -12.1522 c 0.4107,-1.6801 1.1574,-2.9868 2.2402,-3.9202 1.12,-0.9333 2.5011,-1.3999 4.1439,-1.3999 z m 107.1888,0 c 1.7174,0 3.0426,0.4666 3.976,1.3999 0.9707,0.9334 1.5681,2.2401 1.7921,3.9202 h -12.1522 c 0.4107,-1.6801 1.1569,-2.9868 2.2396,-3.9202 1.1201,-0.9333 2.5018,-1.3999 4.1445,-1.3999 z m 90.612,0.3917 c 1.9788,0 3.5468,0.7468 4.7041,2.2402 1.1948,1.4561 1.7922,3.4162 1.7922,5.8803 0,2.4641 -0.5974,4.4242 -1.7922,5.8802 -1.1573,1.4561 -2.7253,2.1844 -4.7041,2.1844 -1.9787,0 -3.5472,-0.7283 -4.7046,-2.1844 -1.1574,-1.456 -1.7358,-3.4161 -1.7358,-5.8802 0,-2.4641 0.5784,-4.4242 1.7358,-5.8803 1.1947,-1.4934 2.7632,-2.2402 4.7046,-2.2402 z m 68.6589,0 c 1.9788,0 3.5467,0.7468 4.7041,2.2402 1.1947,1.4561 1.7921,3.4162 1.7921,5.8803 0,2.4641 -0.5974,4.4242 -1.7921,5.8802 -1.1574,1.4561 -2.7253,2.1844 -4.7041,2.1844 -1.9788,0 -3.5467,-0.7283 -4.7041,-2.1844 -1.1574,-1.456 -1.7363,-3.4161 -1.7363,-5.8802 0,-2.4641 0.5789,-4.4242 1.7363,-5.8803 1.1947,-1.4934 2.7627,-2.2402 4.7041,-2.2402 z m -337.86312,9.4646 v 2.2402 c -0.29868,1.7547 -1.06391,3.1548 -2.29597,4.2002 -1.23206,1.0454 -2.63218,1.5679 -4.20026,1.5679 -1.15739,0 -2.10947,-0.2612 -2.85615,-0.7839 -0.70938,-0.5601 -1.06402,-1.3628 -1.06402,-2.4082 0,-1.456 0.85865,-2.5759 2.57606,-3.36 1.75474,-0.784 4.36819,-1.2696 7.84034,-1.4562 z m 121.46962,0 v 2.2402 c -0.2987,1.7547 -1.064,3.1548 -2.296,4.2002 -1.232,1.0454 -2.6322,1.5679 -4.2003,1.5679 -1.1573,0 -2.1094,-0.2612 -2.8561,-0.7839 -0.7094,-0.5601 -1.064,-1.3628 -1.064,-2.4082 0,-1.456 0.8586,-2.5759 2.576,-3.36 1.7548,-0.784 4.3682,-1.2696 7.8404,-1.4562 z" /><g
         id="g512"><path
           inkscape:connector-curvature="0"
           id="path1461"
           d="m 32.73087,340.4691 c 0.0154,-0.9359 11.94166,-25.6538 26.75698,-54.855 l 26.93692,-53.0928 40.08022,-0.8712 c 3.82932,-0.083 7.50042,-0.1764 11.02715,-0.2806 41.50516,-1.2296 63.01505,-4.0497 87.12017,-11.2729 44.04632,-13.1987 54.27984,-36.6396 33.32461,-76.3339 -18.20062,-34.4765 -56.45509,-67.0184 -93.97019,-79.9375 -13.45623,-4.634 -36.79864,-8.9001 -48.69751,-8.9001 -3.41626,0 -6.56953,-0.5795 -7.00725,-1.2877 -1.13422,-1.8352 7.01443,-3.8427 25.82025,-6.361 47.43239,-6.3517 94.13933,6.1417 133.54787,35.7218 13.41501,10.0695 35.3315,33.2087 44.48827,46.9705 9.05597,13.6103 17.28261,29.7415 21.43613,42.0329 4.16836,12.3354 5.16039,34.3652 2.15441,47.8429 -8.64619,38.7664 -41.55824,54.2636 -119.83513,56.4266 -43.22897,1.1945 -67.46609,5.286 -97.26234,16.4188 -25.46507,9.5146 -54.68318,26.0035 -75.93303,42.8517 -8.89498,7.0526 -10.03426,7.6147 -9.98753,4.9277 z"
           style="fill:#002c8f;fill-opacity:1;stroke-width:1.36136"
           sodipodi:nodetypes="cscsssssscsccccsscc" /><path
           id="path1463"
           style="fill:#e92525;fill-opacity:1;stroke-width:1.36136"
           d="m 165.84466,64.487537 -15.9396,34.951871 C 126.32069,151.15373 111.87561,181.59624 86.426249,232.52121 l 40.078691,-0.87127 c 3.81981,-0.0828 7.48116,-0.1762 10.99985,-0.28008 0.004,-0.0132 0.0207,-0.0618 0.0207,-0.0687 0,-1.5779 27.84105,-57.89388 28.63287,-57.91688 0.39871,-0.0119 3.091,7.17653 5.98258,15.97422 2.89164,8.79779 7.30338,20.85545 9.80406,26.79474 2.33294,5.54102 4.09433,11.01162 4.01422,12.02718 14.00119,-1.73271 25.65995,-4.22679 37.89898,-7.85327 l -5.83272,-15.8626 C 181.05833,103.55643 168.09887,66.480782 168.91527,65.638371 c -1.0237,-0.398036 -2.04709,-0.781194 -3.07061,-1.150834 z m 78.45619,210.224373 c -8.48729,0.73926 -17.65777,1.2447 -27.56473,1.53169 l 7.67602,9.77098 c 10.67237,13.53609 34.2521,39.81979 35.7234,39.81979 2.05451,0 1.67283,-1.37587 -6.89467,-24.85274 -4.49243,-12.31039 -8.94209,-25.39711 -8.94209,-26.24491 0,-0.008 0.002,-0.0166 0.002,-0.0248 z" /></g></g></g></svg>
