<?xml version="1.0" encoding="UTF-8" standalone="no"?>
<!-- Created with Inkscape (http://www.inkscape.org/) -->

<svg
   width="100"
   height="100"
   viewBox="0 0 26.458333 26.458333"
   version="1.1"
   id="svg1808"
   inkscape:version="1.2.1 (9c6d41e410, 2022-07-14)"
   sodipodi:docname="pilar_atendimento.svg"
   xmlns:inkscape="http://www.inkscape.org/namespaces/inkscape"
   xmlns:sodipodi="http://sodipodi.sourceforge.net/DTD/sodipodi-0.dtd"
   xmlns="http://www.w3.org/2000/svg"
   xmlns:svg="http://www.w3.org/2000/svg">
  <sodipodi:namedview
     id="namedview1810"
     pagecolor="#ffffff"
     bordercolor="#000000"
     borderopacity="0.25"
     inkscape:showpageshadow="2"
     inkscape:pageopacity="0.0"
     inkscape:pagecheckerboard="0"
     inkscape:deskcolor="#d1d1d1"
     inkscape:document-units="px"
     showgrid="false"
     inkscape:zoom="3.3209814"
     inkscape:cx="46.070719"
     inkscape:cy="45.167372"
     inkscape:window-width="1600"
     inkscape:window-height="831"
     inkscape:window-x="0"
     inkscape:window-y="32"
     inkscape:window-maximized="1"
     inkscape:current-layer="layer1" />
  <defs
     id="defs1805">
    <rect
       x="2940.5879"
       y="756.28925"
       width="295.54523"
       height="191.38809"
       id="rect55286" />
    <rect
       x="2940.5879"
       y="756.28925"
       width="295.54523"
       height="191.38809"
       id="rect55288" />
    <rect
       x="2940.5879"
       y="756.28925"
       width="301.54486"
       height="201.38745"
       id="rect55290" />
  </defs>
  <g
     inkscape:label="Camada 1"
     inkscape:groupmode="layer"
     id="layer1">
    <path
       d="M 7.6434877,26.458333 H 2.2048566 q -0.8819428,0 -1.54341639,-0.661457 Q -5e-7,25.135402 -5e-7,24.253459 V 13.229158 q 0,-2.75608 1.047303,-5.163053 Q 2.0946055,5.6591327 3.8768609,3.8768773 5.6591327,2.0946055 8.0661066,1.0473025 10.47308,-5e-7 13.229159,-5e-7 q 2.756063,0 5.163037,1.047303 2.406971,1.047303 4.189243,2.8295748 1.782255,1.7822554 2.829591,4.1892277 1.047303,2.406973 1.047303,5.163053 v 11.024301 q 0,0.881943 -0.661474,1.543417 -0.66144,0.661457 -1.543383,0.661457 H 18.814797 V 15.581022 h 5.438679 v -2.351863 q 0,-4.5934454 -3.215454,-7.8088817 -3.215404,-3.2154191 -7.808863,-3.2154191 -4.5934602,0 -7.8088817,3.2154191 -3.2154207,3.2154363 -3.2154207,7.8088817 v 2.351863 H 7.6434877 Z M 5.438647,17.785879 H 2.2048566 v 6.46758 q 0,0 0,0 0,0 0,0 H 5.438647 Z m 15.581022,0 v 6.46758 h 3.233807 q 0,0 0,0 0,0 0,0 v -6.46758 z m 0,0 h 3.233807 q 0,0 0,0 0,0 0,0 z m -15.581022,0 H 2.2048566 q 0,0 0,0 0,0 0,0 z"
       id="path55220"
       style="fill:#002c8f;fill-opacity:1;stroke-width:0.734952" />
  </g>
</svg>
