<?xml version="1.0" encoding="UTF-8" standalone="no"?>
<!-- Created with Inkscape (http://www.inkscape.org/) -->

<svg
   width="100"
   height="100"
   viewBox="0 0 26.458333 26.458333"
   version="1.1"
   id="svg1808"
   inkscape:version="1.2.1 (9c6d41e410, 2022-07-14)"
   sodipodi:docname="pilar_responsabilidade.svg"
   xmlns:inkscape="http://www.inkscape.org/namespaces/inkscape"
   xmlns:sodipodi="http://sodipodi.sourceforge.net/DTD/sodipodi-0.dtd"
   xmlns="http://www.w3.org/2000/svg"
   xmlns:svg="http://www.w3.org/2000/svg">
  <sodipodi:namedview
     id="namedview1810"
     pagecolor="#ffffff"
     bordercolor="#000000"
     borderopacity="0.25"
     inkscape:showpageshadow="2"
     inkscape:pageopacity="0.0"
     inkscape:pagecheckerboard="0"
     inkscape:deskcolor="#d1d1d1"
     inkscape:document-units="px"
     showgrid="false"
     inkscape:zoom="1.6604907"
     inkscape:cx="-5.4200846"
     inkscape:cy="13.851327"
     inkscape:window-width="1600"
     inkscape:window-height="831"
     inkscape:window-x="0"
     inkscape:window-y="32"
     inkscape:window-maximized="1"
     inkscape:current-layer="layer1" />
  <defs
     id="defs1805">
    <rect
       x="2940.5879"
       y="756.28925"
       width="295.54523"
       height="191.38809"
       id="rect55286" />
    <rect
       x="2940.5879"
       y="756.28925"
       width="295.54523"
       height="191.38809"
       id="rect55288" />
    <rect
       x="2940.5879"
       y="756.28925"
       width="301.54486"
       height="201.38745"
       id="rect55290" />
  </defs>
  <g
     inkscape:label="Camada 1"
     inkscape:groupmode="layer"
     id="layer1">
    <path
       d="m 13.079974,23.436788 q 0.150265,0 0.345775,-0.0753 0.195343,-0.07513 0.315556,-0.195459 L 23.873778,13.003537 q 0.390853,-0.390868 0.586362,-0.886958 0.195344,-0.496106 0.195344,-1.007254 0,-0.511115 -0.195344,-1.022246 Q 24.264631,9.575964 23.873778,9.185093 L 18.461932,3.773116 Q 18.070913,3.382246 17.559683,3.186819 17.048617,2.99136 16.537387,2.99136 q -0.511065,0 -1.00727,0.195459 -0.495874,0.19546 -0.886728,0.586297 l -0.541118,0.541185 2.435115,2.46545 q 0.391019,0.420939 0.691714,0.977167 0.300695,0.556243 0.300695,1.217705 0,1.142525 -0.887058,2.014457 -0.886893,0.871916 -2.029401,0.871916 -0.751819,0 -1.247841,-0.225446 -0.496056,-0.225464 -0.916946,-0.646418 L 10.253527,8.794274 4.811463,14.236322 q -0.150264,0.150264 -0.211361,0.315686 -0.05945,0.165458 -0.05945,0.345774 0,0.390871 0.255451,0.646436 0.255615,0.25555 0.646468,0.25555 0.179658,0 0.345774,-0.09016 0.165952,-0.09016 0.285669,-0.210453 l 4.149125,-4.149176 1.262886,1.262786 -4.119238,4.119123 q -0.150265,0.150264 -0.211362,0.330731 -0.05945,0.180466 -0.05945,0.360801 0,0.3608 0.270477,0.631393 0.270642,0.270592 0.631442,0.270592 0.179327,0 0.345774,-0.07513 0.165952,-0.07513 0.285668,-0.195459 l 4.149127,-4.149176 1.262718,1.262786 -4.119072,4.119123 Q 9.801567,19.40776 9.7266,19.603253 q -0.07431,0.195444 -0.07431,0.375828 0,0.3608 0.270807,0.631409 0.270642,0.270576 0.631261,0.270576 0.179491,0 0.330765,-0.06027 0.150264,-0.06027 0.300694,-0.21047 l 4.149291,-4.149175 1.262719,1.262802 -4.149125,4.149176 q -0.150264,0.150264 -0.211361,0.330731 -0.05945,0.180466 -0.05945,0.330748 0,0.420923 0.240425,0.661445 0.240589,0.240523 0.661496,0.240523 z m 0,1.804004 q -0.992242,0 -1.774114,-0.736628 -0.781543,-0.736645 -0.931973,-1.81903 Q 9.351755,22.534869 8.660207,21.843287 7.968659,21.151755 7.818395,20.129476 6.796098,19.979211 6.119577,19.27257 5.443071,18.566028 5.292625,17.573834 4.18017,17.423569 3.458568,16.671832 2.736967,15.920161 2.736967,14.867829 q 0,-0.511149 0.195509,-1.022264 0.195344,-0.511131 0.586363,-0.902001 l 6.734673,-6.734902 3.307312,3.307311 q 0.240753,0.24054 0.526258,0.375827 0.285668,0.135239 0.556309,0.135239 0.390853,0 0.736629,-0.345758 0.345608,-0.345774 0.345608,-0.736644 0,-0.18045 -0.10568,-0.405897 Q 15.514267,8.313293 15.274172,8.072721 L 10.974616,3.773216 Q 10.583764,3.382345 10.072862,3.186918 9.561631,2.991459 9.050566,2.991459 q -0.511231,0 -1.007435,0.195459 Q 7.547092,3.382362 7.156239,3.773216 L 2.58604,8.343313 q -0.420906,0.42094 -0.586362,0.886959 -0.165786,0.466035 -0.195344,1.037306 -0.02972,0.601324 0.224902,1.157551 0.255615,0.556244 0.616416,1.007253 L 1.352879,13.725238 Q 0.751489,13.063759 0.375662,12.131704 0,11.199649 0,10.237509 0,9.335507 0.345609,8.508687 0.691548,7.681851 1.322826,7.050475 L 5.862971,2.510396 Q 6.524301,1.848934 7.366114,1.533229 8.207927,1.217541 9.080123,1.217541 q 0.871701,0 1.698654,0.315688 0.826787,0.315705 1.488282,0.977167 l 0.541119,0.541202 0.541283,-0.541202 q 0.661496,-0.661462 1.503308,-0.977167 0.841814,-0.315688 1.714011,-0.315688 0.871701,0 1.698488,0.315688 0.826787,0.315705 1.488282,0.977167 l 5.381957,5.381909 q 0.661496,0.661494 0.992243,1.503341 0.330583,0.841863 0.330583,1.713778 0,0.871949 -0.330583,1.698769 -0.330747,0.82682 -0.992243,1.488315 L 15.003034,24.428932 q -0.390688,0.390854 -0.886729,0.60134 -0.496368,0.210437 -1.03732,0.210437 z M 10.133298,8.824458 q 0,0 0,0 0,0 0,0 0,0 0,0 0,0 0,0 0,0 0,0 0,0 0,0 0,0 0,0 0,0 0,0 0,0 0,0 0,0 0,0 0,0 0,0 0,0 0,0 0,0 0,0 0,0 0,0 z"
       id="path55232"
       style="fill:#002c8f;fill-opacity:1;stroke-width:0.60133" />
  </g>
</svg>
