<?xml version="1.0" encoding="UTF-8" standalone="no"?>
<!-- Created with Inkscape (http://www.inkscape.org/) -->

<svg
   width="100"
   height="100"
   viewBox="0 0 26.458333 26.458333"
   version="1.1"
   id="svg1808"
   inkscape:version="1.2.1 (9c6d41e410, 2022-07-14)"
   sodipodi:docname="pilar_economia.svg"
   xmlns:inkscape="http://www.inkscape.org/namespaces/inkscape"
   xmlns:sodipodi="http://sodipodi.sourceforge.net/DTD/sodipodi-0.dtd"
   xmlns="http://www.w3.org/2000/svg"
   xmlns:svg="http://www.w3.org/2000/svg">
  <sodipodi:namedview
     id="namedview1810"
     pagecolor="#ffffff"
     bordercolor="#000000"
     borderopacity="0.25"
     inkscape:showpageshadow="2"
     inkscape:pageopacity="0.0"
     inkscape:pagecheckerboard="0"
     inkscape:deskcolor="#d1d1d1"
     inkscape:document-units="px"
     showgrid="false"
     inkscape:zoom="0.83024534"
     inkscape:cx="-81.903501"
     inkscape:cy="92.74367"
     inkscape:window-width="1600"
     inkscape:window-height="831"
     inkscape:window-x="0"
     inkscape:window-y="32"
     inkscape:window-maximized="1"
     inkscape:current-layer="layer1" />
  <defs
     id="defs1805">
    <rect
       x="2940.5879"
       y="756.28925"
       width="295.54523"
       height="191.38809"
       id="rect55286" />
    <rect
       x="2940.5879"
       y="756.28925"
       width="295.54523"
       height="191.38809"
       id="rect55288" />
    <rect
       x="2940.5879"
       y="756.28925"
       width="301.54486"
       height="201.38745"
       id="rect55290" />
    <rect
       x="2940.5879"
       y="756.28925"
       width="295.54523"
       height="191.38809"
       id="rect26009" />
    <rect
       x="2940.5879"
       y="756.28925"
       width="314.54401"
       height="204.38725"
       id="rect26007" />
  </defs>
  <g
     inkscape:label="Camada 1"
     inkscape:groupmode="layer"
     id="layer1">
    <g
       id="g39827"
       transform="matrix(1.1141725,0,0,1.1141725,-2033.7188,-547.93872)">
      <path
         d="m 1841.9415,503.06972 q 0.5045,0 0.846,-0.34138 0.3412,-0.34137 0.3412,-0.84597 0,-0.50463 -0.3412,-0.84598 -0.3415,-0.34138 -0.846,-0.34138 -0.5046,0 -0.8461,0.34138 -0.3413,0.34135 -0.3413,0.84598 0,0.5046 0.3413,0.84597 0.3415,0.34138 0.8461,0.34138 z m -9.4988,-2.96837 h 5.9368 v -1.78101 h -5.9368 z m -4.1558,14.84178 q -0.8903,-2.93868 -1.4544,-5.04621 -0.5639,-2.10753 -0.9054,-3.66592 -0.3413,-1.55838 -0.4748,-2.71605 -0.1346,-1.15764 -0.1346,-2.22625 0,-2.7309 1.8998,-4.63064 1.8998,-1.89975 4.6305,-1.89975 h 5.9369 q 0.8015,-1.06861 2.0333,-1.72165 1.2319,-0.65303 2.7159,-0.65303 0.7423,0 1.2617,0.51946 0.5195,0.51946 0.5195,1.26155 0,0.17816 -0.045,0.35621 -0.045,0.17815 -0.1032,0.32651 -0.119,0.32652 -0.2222,0.65304 -0.1032,0.32652 -0.1638,0.7124 l 2.7011,2.7012 h 2.5826 v 8.28172 l -3.3542,1.0983 -1.9889,6.64911 h -6.5304 v -2.37468 h -2.3746 v 2.37468 z m 1.3358,-1.78101 h 3.4137 v -2.37468 h 5.9366 v 2.37468 h 3.4137 l 1.87,-6.23354 3.0278,-1.03893 v -5.19464 h -1.5435 l -3.7995,-3.79949 q 0.029,-0.50463 0.1638,-1.23186 0.1347,-0.72726 0.3712,-1.61776 -1.2765,0.32652 -2.2559,0.97955 -0.9797,0.65304 -1.4249,1.51387 h -6.9461 q -1.959,0 -3.3542,1.39513 -1.395,1.39512 -1.395,3.35425 0,1.2467 0.6529,4.34864 0.6532,3.10194 1.87,7.52478 z m 7.5694,-9.55811 q 0,0 0,0 0,0 0,0 0,0 0,0 0,0 0,0 0,0 0,0 0,0 0,0 0,0 0,0 0,0 0,0 z"
         id="path34763"
         style="fill:#002c8f;fill-opacity:1;stroke-width:0.593671" />
    </g>
  </g>
</svg>
