<?xml version="1.0" encoding="UTF-8" standalone="no"?>
<svg
   width="32"
   height="32"
   viewBox="0 0 8.4666669 8.4666666"
   version="1.1"
   id="svg880"
   inkscape:version="1.2.1 (9c6d41e410, 2022-07-14)"
   sodipodi:docname="ADMotos símbolo.svg"
   inkscape:export-filename="D:\Diógenes\logos\exportadas\simboload.png"
   inkscape:export-xdpi="300"
   inkscape:export-ydpi="300"
   xmlns:inkscape="http://www.inkscape.org/namespaces/inkscape"
   xmlns:sodipodi="http://sodipodi.sourceforge.net/DTD/sodipodi-0.dtd"
   xmlns="http://www.w3.org/2000/svg"
   xmlns:svg="http://www.w3.org/2000/svg"
   xmlns:rdf="http://www.w3.org/1999/02/22-rdf-syntax-ns#"
   xmlns:cc="http://creativecommons.org/ns#"
   xmlns:dc="http://purl.org/dc/elements/1.1/">
  <defs
     id="defs874">
    <inkscape:perspective
       sodipodi:type="inkscape:persp3d"
       inkscape:vp_x="0 : -256.11666 : 1"
       inkscape:vp_y="0 : 1000 : 0"
       inkscape:vp_z="529.16668 : -256.11666 : 1"
       inkscape:persp3d-origin="264.58334 : -344.31111 : 1"
       id="perspective34" />
  </defs>
  <sodipodi:namedview
     id="base"
     pagecolor="#ffffff"
     bordercolor="#666666"
     borderopacity="1.0"
     inkscape:pageopacity="0.0"
     inkscape:pageshadow="2"
     inkscape:zoom="10.581301"
     inkscape:cx="27.690358"
     inkscape:cy="28.068383"
     inkscape:document-units="mm"
     inkscape:current-layer="g840"
     showgrid="false"
     inkscape:window-width="1600"
     inkscape:window-height="831"
     inkscape:window-x="0"
     inkscape:window-y="32"
     inkscape:window-maximized="1"
     inkscape:document-rotation="0"
     units="px"
     inkscape:pagecheckerboard="1"
     inkscape:showpageshadow="2"
     inkscape:deskcolor="#d1d1d1" />
  <metadata
     id="metadata877">
    <rdf:RDF>
      <cc:Work
         rdf:about="">
        <dc:format>image/svg+xml</dc:format>
        <dc:type
           rdf:resource="http://purl.org/dc/dcmitype/StillImage" />
      </cc:Work>
    </rdf:RDF>
  </metadata>
  <g
     inkscape:label="Layer 1"
     inkscape:groupmode="layer"
     id="layer1"
     transform="translate(0,-197)">
    <g
       id="g840"
       transform="translate(0,-9.5250003)">
      <g
         id="g831"
         transform="matrix(0.10720706,0,0,0.10720706,-2.0771862,183.05778)">
        <path
           inkscape:connector-curvature="0"
           id="path1463"
           d="m 20.911572,294.616 c 1.590253,-1.99149 3.637849,-6.20847 8.83876,-16.52034 1.640199,-3.25203 2.860011,-6.71629 3.528754,-9.6239 6.56e-4,-0.003 0.0057,-0.0456 0.007,-0.0482 6.597625,-13.20188 10.34096,-21.09077 16.453917,-34.49488 l 4.15103,-9.10212 -0.94551,-0.37037 c -1.7582,-0.68871 -4.354697,-2.81015 -7.924747,-2.5296 -1.80129,-0.12892 0.09545,0.15444 0,0 -0.26202,-0.42396 -3.940921,0.10655 0.761529,-0.52315 10.13848,-1.35765 18.148614,0.44064 26.833154,5.61149 8.30777,4.94652 15.744251,11.96792 20.121161,20.52334 2.24027,4.50166 3.112139,6.19391 3.315019,10.39988 0.57257,11.87007 -3.327486,18.0309 -17.147646,19.89274 -4.07171,0.54854 -4.70304,1.0651 -4.70304,1.52391 0,0.21968 1.15295,3.61086 2.31711,6.80094 2.22016,6.08374 2.31909,6.44034 1.78669,6.44034 -0.38127,0 -6.49167,-6.81103 -9.25728,-10.31875 l -1.99116,-2.5348 -5.086685,-0.74535 c -13.903506,-2.03729 -27.935463,4.96786 -39.958983,14.8045 -1.98698,1.62558 -1.473278,1.74951 -1.473278,1.74951 z m 35.475395,-25.3418 c 1.20896,-0.14475 2.586713,-1.84678 2.684383,-1.94446 0.0977,-0.0977 -0.38066,-1.61698 -1.02868,-3.15609 -0.64802,-1.5391 -1.7913,-4.66368 -2.54063,-6.94351 -0.74932,-2.27982 -1.44694,-4.1426 -1.55026,-4.1395 -0.20519,0.006 -7.4198,14.5995 -7.4198,15.0084 0,0.0247 -0.09824,0.21709 0.0023,0.25891 0.968363,0.40264 6.427778,1.3263 9.852659,0.91625 z m 18.201803,-4.09016 c 4.63315,-2.27586 7.39738,-5.70481 7.39738,-10.04747 0,-7.97388 -8.860722,-20.72069 -20.117882,-27.48037 -2.54654,-1.52913 -6.757888,-2.65339 -7.199118,-2.49443 -0.26079,0.094 3.07987,9.65946 12.7233,35.98284 l 1.515959,4.12256 1.046011,0.17415 c 0.605102,0.10074 3.04819,0.52186 4.63435,-0.25728 z"
           style="fill:#ff0000;stroke-width:0.352778"
           sodipodi:nodetypes="cssssccccsscssscsccssscssccscssscccccss" />
        <path
           inkscape:connector-curvature="0"
           id="path1461"
           d="m 19.37576,296.38848 c 0.004,-0.24254 3.09453,-6.64787 6.93373,-14.21497 l 6.98036,-13.75833 10.38628,-0.22577 c 0.99232,-0.0216 1.943639,-0.0457 2.857546,-0.0727 10.755536,-0.31863 16.329548,-1.04943 22.576084,-2.92123 11.414045,-3.42027 14.06593,-9.49468 8.63565,-19.78096 -4.71646,-8.93414 -14.62962,-17.36696 -24.35118,-20.7148 -3.48701,-1.20083 -9.5359,-2.30633 -12.61934,-2.30633 -0.88528,0 -1.70241,-0.15017 -1.81584,-0.33371 -0.29392,-0.47556 1.8177,-0.99577 6.69099,-1.64835 12.2915,-1.64596 24.39501,1.59152 34.60723,9.25685 3.47633,2.60936 9.15571,8.6056 11.52857,12.1718 2.34674,3.52693 4.47857,7.70712 5.5549,10.8923 1.08018,3.19654 1.33725,8.9053 0.55829,12.39786 -2.24055,10.04582 -10.76929,14.06172 -31.05375,14.62224 -11.20224,0.30955 -17.48298,1.3698 -25.2043,4.25473 -6.59895,2.46558 -14.17045,6.73846 -19.67708,11.10448 -2.30502,1.82759 -2.60025,1.97324 -2.58814,1.27693 z"
           style="fill:#000080;stroke-width:0.352778"
           sodipodi:nodetypes="cscsssssscsccccsscc" />
      </g>
    </g>
  </g>
</svg>
